<mxfile host="Electron" agent="Mozilla/5.0 (Windows NT 10.0; Win64; x64) AppleWebKit/537.36 (KHTML, like Gecko) draw.io/24.7.17 Chrome/128.0.6613.36 Electron/32.0.1 Safari/537.36" border="50" scale="3" compressed="false" locked="false" version="24.7.17">
  <diagram name="Blank" id="YmL12bMKpDGza6XwsDPr">
    <mxGraphModel dx="2502" dy="1158" grid="0" gridSize="10" guides="1" tooltips="1" connect="1" arrows="1" fold="1" page="0" pageScale="1" pageWidth="827" pageHeight="1169" background="none" math="1" shadow="0">
      <root>
        <mxCell id="X5NqExCQtvZxIxQ7pmgY-0" />
        <mxCell id="1" parent="X5NqExCQtvZxIxQ7pmgY-0" />
        <mxCell id="iWuvRn1QBdHZceRhZ_qn-16" value="" style="html=1;whiteSpace=wrap;shape=isoCube2;backgroundOutline=1;isoAngle=15;" parent="1" vertex="1">
          <mxGeometry x="510" y="160" width="143" height="159" as="geometry" />
        </mxCell>
        <mxCell id="iWuvRn1QBdHZceRhZ_qn-10" value="" style="edgeStyle=orthogonalEdgeStyle;rounded=0;orthogonalLoop=1;jettySize=auto;html=1;entryX=0.204;entryY=0.883;entryDx=0;entryDy=0;entryPerimeter=0;exitX=1;exitY=0.5;exitDx=0;exitDy=0;strokeColor=none;" parent="1" source="iWuvRn1QBdHZceRhZ_qn-25" target="iWuvRn1QBdHZceRhZ_qn-12" edge="1">
          <mxGeometry relative="1" as="geometry">
            <mxPoint x="111.2800000000002" y="326.26" as="targetPoint" />
          </mxGeometry>
        </mxCell>
        <mxCell id="iWuvRn1QBdHZceRhZ_qn-4" value="" style="image;aspect=fixed;html=1;points=[];align=center;fontSize=12;image=img/lib/azure2/databases/Azure_Database_PostgreSQL_Server.svg;" parent="1" vertex="1">
          <mxGeometry x="633.13" y="341" width="39.75" height="53" as="geometry" />
        </mxCell>
        <mxCell id="iWuvRn1QBdHZceRhZ_qn-8" value="" style="image;sketch=0;aspect=fixed;html=1;points=[];align=center;fontSize=12;image=img/lib/mscae/Docker.svg;rotation=25;" parent="1" vertex="1">
          <mxGeometry x="521" y="222" width="50" height="41" as="geometry" />
        </mxCell>
        <mxCell id="iWuvRn1QBdHZceRhZ_qn-22" value="" style="edgeStyle=orthogonalEdgeStyle;rounded=0;orthogonalLoop=1;jettySize=auto;html=1;entryX=0;entryY=0.5;entryDx=0;entryDy=0;entryPerimeter=0;" parent="1" source="iWuvRn1QBdHZceRhZ_qn-12" target="iWuvRn1QBdHZceRhZ_qn-16" edge="1">
          <mxGeometry relative="1" as="geometry" />
        </mxCell>
        <mxCell id="iWuvRn1QBdHZceRhZ_qn-12" value="" style="html=1;whiteSpace=wrap;shape=isoCube2;backgroundOutline=1;isoAngle=15;" parent="1" vertex="1">
          <mxGeometry x="-170" y="-24" width="215" height="211" as="geometry" />
        </mxCell>
        <mxCell id="iWuvRn1QBdHZceRhZ_qn-13" value="Postgres JDBC" style="text;html=1;align=center;verticalAlign=middle;whiteSpace=wrap;rounded=0;rotation=-25;" parent="1" vertex="1">
          <mxGeometry x="-43" y="72" width="66" height="28" as="geometry" />
        </mxCell>
        <mxCell id="IqcgO0fhXSd2waFjPhRO-10" value="" style="edgeStyle=orthogonalEdgeStyle;rounded=0;orthogonalLoop=1;jettySize=auto;html=1;entryX=0.193;entryY=1.014;entryDx=0;entryDy=0;entryPerimeter=0;" edge="1" parent="1" source="iWuvRn1QBdHZceRhZ_qn-17" target="IqcgO0fhXSd2waFjPhRO-8">
          <mxGeometry relative="1" as="geometry">
            <mxPoint x="873" y="355" as="targetPoint" />
          </mxGeometry>
        </mxCell>
        <mxCell id="iWuvRn1QBdHZceRhZ_qn-17" value="" style="html=1;shape=mxgraph.basic.isocube;isoAngle=15;fillColor=none;" parent="1" vertex="1">
          <mxGeometry x="583" y="285" width="140" height="140" as="geometry" />
        </mxCell>
        <mxCell id="iWuvRn1QBdHZceRhZ_qn-21" value="" style="shape=waypoint;sketch=0;size=6;pointerEvents=1;points=[];fillColor=default;resizable=0;rotatable=0;perimeter=centerPerimeter;snapToPoint=1;" parent="1" vertex="1">
          <mxGeometry x="531" y="289" width="20" height="20" as="geometry" />
        </mxCell>
        <mxCell id="iWuvRn1QBdHZceRhZ_qn-23" value="" style="shape=waypoint;sketch=0;size=6;pointerEvents=1;points=[];fillColor=default;resizable=0;rotatable=0;perimeter=centerPerimeter;snapToPoint=1;" parent="1" vertex="1">
          <mxGeometry x="256" y="568" width="20" height="20" as="geometry" />
        </mxCell>
        <mxCell id="iWuvRn1QBdHZceRhZ_qn-25" value="" style="strokeColor=none;shadow=1;strokeWidth=1;rounded=1;absoluteArcSize=1;arcSize=2;fillColor=none;" parent="1" vertex="1">
          <mxGeometry x="-112" y="472" width="582" height="486.5" as="geometry" />
        </mxCell>
        <mxCell id="iWuvRn1QBdHZceRhZ_qn-27" value="" style="html=1;whiteSpace=wrap;shape=isoCube2;backgroundOutline=1;isoAngle=15;fillColor=none;" parent="iWuvRn1QBdHZceRhZ_qn-25" vertex="1">
          <mxGeometry x="-32.19230769230769" y="-63.63502109704642" width="509.7115384615384" height="550.1350210970464" as="geometry" />
        </mxCell>
        <mxCell id="iWuvRn1QBdHZceRhZ_qn-26" value="Maven&lt;div&gt;&lt;br&gt;&lt;/div&gt;" style="editableCssRules=.*;html=1;fontColor=#999999;shape=image;verticalLabelPosition=middle;verticalAlign=middle;labelPosition=right;align=left;spacingLeft=20;part=1;points=[];imageAspect=0;image=data:image/svg+xml,PHN2ZyB4bWxucz0iaHR0cDovL3d3dy53My5vcmcvMjAwMC9zdmciIHhtbG5zOnY9Imh0dHBzOi8vdmVjdGEuaW8vbmFubyIgd2lkdGg9IjQyNCIgaGVpZ2h0PSI0MjQiIHZpZXdCb3g9IjAgMCA0MjQgNDI0Ij4mI3hhOwk8c3R5bGUgdHlwZT0idGV4dC9jc3MiPiYjeGE7CS5zdDB7ZmlsbDojNDI4NWY0O30mI3hhOwk8L3N0eWxlPiYjeGE7CTxwYXRoIGNsYXNzPSJzdDAiIGQ9Ik00MjQgMHY0MjRIMFYwek0yMTIgOTcuODQ2Yy0zNy44ODQgMC03MC4xNjQgMjMuOTktODIuNDc4IDU3LjYwOGgwbC0zLjQwMy4wMDFjLTQyLjYzNCAwLTc3LjE5NiAzNC41NjItNzcuMTk2IDc3LjE5NnMzNC41NjIgNzcuMTk2IDc3LjE5NiA3Ny4xOTZoMCAxNzEuNzYzYzQyLjYzNCAwIDc3LjE5Ni0zNC41NjIgNzcuMTk2LTc3LjE5NnMtMzQuNTYyLTc3LjE5Ni03Ny4xOTYtNzcuMTk2aDBsLTMuNDAzLS4wMDFDMjgyLjE2NCAxMjEuODM3IDI0OS44ODQgOTcuODQ2IDIxMiA5Ny44NDZ6IiBmaWxsLXJ1bGU9ImV2ZW5vZGQiLz4mI3hhOzwvc3ZnPg==;rotation=-30;" parent="iWuvRn1QBdHZceRhZ_qn-25" vertex="1">
          <mxGeometry width="30" height="30" relative="1" as="geometry">
            <mxPoint x="15" y="15" as="offset" />
          </mxGeometry>
        </mxCell>
        <mxCell id="iWuvRn1QBdHZceRhZ_qn-3" value="Der Druide" style="shape=umlActor;verticalLabelPosition=bottom;verticalAlign=top;html=1;fillColor=#60a917;fontColor=#ffffff;strokeColor=#2D7600;" parent="iWuvRn1QBdHZceRhZ_qn-25" vertex="1">
          <mxGeometry x="85" y="232" width="30" height="60" as="geometry" />
        </mxCell>
        <mxCell id="iWuvRn1QBdHZceRhZ_qn-5" value="" style="dashed=0;outlineConnect=0;html=1;align=center;labelPosition=center;verticalLabelPosition=bottom;verticalAlign=top;shape=mxgraph.weblogos.java" parent="iWuvRn1QBdHZceRhZ_qn-25" vertex="1">
          <mxGeometry x="117" y="210" width="32.4" height="65" as="geometry" />
        </mxCell>
        <mxCell id="iWuvRn1QBdHZceRhZ_qn-33" value="Use" style="endArrow=open;endSize=12;dashed=1;html=1;rounded=0;exitX=0.275;exitY=0.08;exitDx=0;exitDy=0;exitPerimeter=0;entryX=0.235;entryY=0.874;entryDx=0;entryDy=0;entryPerimeter=0;" parent="1" source="iWuvRn1QBdHZceRhZ_qn-27" target="iWuvRn1QBdHZceRhZ_qn-12" edge="1">
          <mxGeometry width="160" relative="1" as="geometry">
            <mxPoint x="356" y="484" as="sourcePoint" />
            <mxPoint x="-120.13340618695383" y="156" as="targetPoint" />
          </mxGeometry>
        </mxCell>
        <mxCell id="iWuvRn1QBdHZceRhZ_qn-36" value="&lt;div style=&quot;text-align: left;&quot;&gt;&lt;div style=&quot;font-size: 8px;&quot;&gt;&lt;div style=&quot;color: rgb(204, 204, 204); background-color: rgb(31, 31, 31); font-family: Consolas, &amp;quot;Courier New&amp;quot;, monospace; line-height: 19px; white-space: pre;&quot;&gt;&lt;div&gt;&lt;span style=&quot;color: #808080;&quot;&gt;&amp;lt;&lt;/span&gt;&lt;span style=&quot;color: #569cd6;&quot;&gt;dependencies&lt;/span&gt;&lt;span style=&quot;color: #808080;&quot;&gt;&amp;gt;&lt;/span&gt;&lt;/div&gt;&lt;br&gt;&lt;div&gt;&amp;nbsp; &amp;nbsp; &amp;nbsp; &amp;nbsp; &lt;span style=&quot;color: #808080;&quot;&gt;&amp;lt;&lt;/span&gt;&lt;span style=&quot;color: #569cd6;&quot;&gt;dependency&lt;/span&gt;&lt;span style=&quot;color: #808080;&quot;&gt;&amp;gt;&lt;/span&gt;&lt;/div&gt;&lt;div&gt;&amp;nbsp; &amp;nbsp; &amp;nbsp; &amp;nbsp; &amp;nbsp; &amp;nbsp; &lt;span style=&quot;color: #808080;&quot;&gt;&amp;lt;&lt;/span&gt;&lt;span style=&quot;color: #569cd6;&quot;&gt;groupId&lt;/span&gt;&lt;span style=&quot;color: #808080;&quot;&gt;&amp;gt;&lt;/span&gt;org.springframework.boot&lt;span style=&quot;color: #808080;&quot;&gt;&amp;lt;/&lt;/span&gt;&lt;span style=&quot;color: #569cd6;&quot;&gt;groupId&lt;/span&gt;&lt;span style=&quot;color: #808080;&quot;&gt;&amp;gt;&lt;/span&gt;&lt;/div&gt;&lt;div&gt;&amp;nbsp; &amp;nbsp; &amp;nbsp; &amp;nbsp; &amp;nbsp; &amp;nbsp; &lt;span style=&quot;color: #808080;&quot;&gt;&amp;lt;&lt;/span&gt;&lt;span style=&quot;color: #569cd6;&quot;&gt;artifactId&lt;/span&gt;&lt;span style=&quot;color: #808080;&quot;&gt;&amp;gt;&lt;/span&gt;spring-boot-starter-data-jpa&lt;span style=&quot;color: #808080;&quot;&gt;&amp;lt;/&lt;/span&gt;&lt;span style=&quot;color: #569cd6;&quot;&gt;artifactId&lt;/span&gt;&lt;span style=&quot;color: #808080;&quot;&gt;&amp;gt;&lt;/span&gt;&lt;/div&gt;&lt;div&gt;&amp;nbsp; &amp;nbsp; &amp;nbsp; &amp;nbsp; &amp;nbsp; &amp;nbsp; &lt;span style=&quot;color: #808080;&quot;&gt;&amp;lt;&lt;/span&gt;&lt;span style=&quot;color: #569cd6;&quot;&gt;version&lt;/span&gt;&lt;span style=&quot;color: #808080;&quot;&gt;&amp;gt;&lt;/span&gt;3.3.4&lt;span style=&quot;color: #808080;&quot;&gt;&amp;lt;/&lt;/span&gt;&lt;span style=&quot;color: #569cd6;&quot;&gt;version&lt;/span&gt;&lt;span style=&quot;color: #808080;&quot;&gt;&amp;gt;&lt;/span&gt;&lt;/div&gt;&lt;div&gt;&amp;nbsp; &amp;nbsp; &amp;nbsp; &amp;nbsp; &lt;span style=&quot;color: #808080;&quot;&gt;&amp;lt;/&lt;/span&gt;&lt;span style=&quot;color: #569cd6;&quot;&gt;dependency&lt;/span&gt;&lt;span style=&quot;color: #808080;&quot;&gt;&amp;gt;&lt;/span&gt;&lt;/div&gt;&lt;br&gt;&lt;div&gt;&amp;nbsp; &amp;nbsp; &amp;nbsp; &amp;nbsp; &lt;span style=&quot;color: #808080;&quot;&gt;&amp;lt;&lt;/span&gt;&lt;span style=&quot;color: #569cd6;&quot;&gt;dependency&lt;/span&gt;&lt;span style=&quot;color: #808080;&quot;&gt;&amp;gt;&lt;/span&gt;&lt;/div&gt;&lt;div&gt;&amp;nbsp; &amp;nbsp; &amp;nbsp; &amp;nbsp; &amp;nbsp; &amp;nbsp; &lt;span style=&quot;color: #808080;&quot;&gt;&amp;lt;&lt;/span&gt;&lt;span style=&quot;color: #569cd6;&quot;&gt;groupId&lt;/span&gt;&lt;span style=&quot;color: #808080;&quot;&gt;&amp;gt;&lt;/span&gt;org.springframework.boot&lt;span style=&quot;color: #808080;&quot;&gt;&amp;lt;/&lt;/span&gt;&lt;span style=&quot;color: #569cd6;&quot;&gt;groupId&lt;/span&gt;&lt;span style=&quot;color: #808080;&quot;&gt;&amp;gt;&lt;/span&gt;&lt;/div&gt;&lt;div&gt;&amp;nbsp; &amp;nbsp; &amp;nbsp; &amp;nbsp; &amp;nbsp; &amp;nbsp; &lt;span style=&quot;color: #808080;&quot;&gt;&amp;lt;&lt;/span&gt;&lt;span style=&quot;color: #569cd6;&quot;&gt;artifactId&lt;/span&gt;&lt;span style=&quot;color: #808080;&quot;&gt;&amp;gt;&lt;/span&gt;spring-boot-starter-graphql&lt;span style=&quot;color: #808080;&quot;&gt;&amp;lt;/&lt;/span&gt;&lt;span style=&quot;color: #569cd6;&quot;&gt;artifactId&lt;/span&gt;&lt;span style=&quot;color: #808080;&quot;&gt;&amp;gt;&lt;/span&gt;&lt;/div&gt;&lt;div&gt;&amp;nbsp; &amp;nbsp; &amp;nbsp; &amp;nbsp; &lt;span style=&quot;color: #808080;&quot;&gt;&amp;lt;/&lt;/span&gt;&lt;span style=&quot;color: #569cd6;&quot;&gt;dependency&lt;/span&gt;&lt;span style=&quot;color: #808080;&quot;&gt;&amp;gt;&lt;/span&gt;&lt;/div&gt;&lt;div&gt;&amp;nbsp; &amp;nbsp; &amp;nbsp; &amp;nbsp; &lt;span style=&quot;color: #808080;&quot;&gt;&amp;lt;&lt;/span&gt;&lt;span style=&quot;color: #569cd6;&quot;&gt;dependency&lt;/span&gt;&lt;span style=&quot;color: #808080;&quot;&gt;&amp;gt;&lt;/span&gt;&lt;/div&gt;&lt;div&gt;&amp;nbsp; &amp;nbsp; &amp;nbsp; &amp;nbsp; &amp;nbsp; &amp;nbsp; &lt;span style=&quot;color: #808080;&quot;&gt;&amp;lt;&lt;/span&gt;&lt;span style=&quot;color: #569cd6;&quot;&gt;groupId&lt;/span&gt;&lt;span style=&quot;color: #808080;&quot;&gt;&amp;gt;&lt;/span&gt;org.springframework.boot&lt;span style=&quot;color: #808080;&quot;&gt;&amp;lt;/&lt;/span&gt;&lt;span style=&quot;color: #569cd6;&quot;&gt;groupId&lt;/span&gt;&lt;span style=&quot;color: #808080;&quot;&gt;&amp;gt;&lt;/span&gt;&lt;/div&gt;&lt;div&gt;&amp;nbsp; &amp;nbsp; &amp;nbsp; &amp;nbsp; &amp;nbsp; &amp;nbsp; &lt;span style=&quot;color: #808080;&quot;&gt;&amp;lt;&lt;/span&gt;&lt;span style=&quot;color: #569cd6;&quot;&gt;artifactId&lt;/span&gt;&lt;span style=&quot;color: #808080;&quot;&gt;&amp;gt;&lt;/span&gt;spring-boot-starter-web&lt;span style=&quot;color: #808080;&quot;&gt;&amp;lt;/&lt;/span&gt;&lt;span style=&quot;color: #569cd6;&quot;&gt;artifactId&lt;/span&gt;&lt;span style=&quot;color: #808080;&quot;&gt;&amp;gt;&lt;/span&gt;&lt;/div&gt;&lt;div&gt;&amp;nbsp; &amp;nbsp; &amp;nbsp; &amp;nbsp; &lt;span style=&quot;color: #808080;&quot;&gt;&amp;lt;/&lt;/span&gt;&lt;span style=&quot;color: #569cd6;&quot;&gt;dependency&lt;/span&gt;&lt;span style=&quot;color: #808080;&quot;&gt;&amp;gt;&lt;/span&gt;&lt;/div&gt;&lt;br&gt;&lt;div&gt;&amp;nbsp; &amp;nbsp; &amp;nbsp; &amp;nbsp; &lt;span style=&quot;color: #808080;&quot;&gt;&amp;lt;&lt;/span&gt;&lt;span style=&quot;color: #569cd6;&quot;&gt;dependency&lt;/span&gt;&lt;span style=&quot;color: #808080;&quot;&gt;&amp;gt;&lt;/span&gt;&lt;/div&gt;&lt;div&gt;&amp;nbsp; &amp;nbsp; &amp;nbsp; &amp;nbsp; &amp;nbsp; &amp;nbsp; &lt;span style=&quot;color: #808080;&quot;&gt;&amp;lt;&lt;/span&gt;&lt;span style=&quot;color: #569cd6;&quot;&gt;groupId&lt;/span&gt;&lt;span style=&quot;color: #808080;&quot;&gt;&amp;gt;&lt;/span&gt;org.springframework.boot&lt;span style=&quot;color: #808080;&quot;&gt;&amp;lt;/&lt;/span&gt;&lt;span style=&quot;color: #569cd6;&quot;&gt;groupId&lt;/span&gt;&lt;span style=&quot;color: #808080;&quot;&gt;&amp;gt;&lt;/span&gt;&lt;/div&gt;&lt;div&gt;&amp;nbsp; &amp;nbsp; &amp;nbsp; &amp;nbsp; &amp;nbsp; &amp;nbsp; &lt;span style=&quot;color: #808080;&quot;&gt;&amp;lt;&lt;/span&gt;&lt;span style=&quot;color: #569cd6;&quot;&gt;artifactId&lt;/span&gt;&lt;span style=&quot;color: #808080;&quot;&gt;&amp;gt;&lt;/span&gt;spring-boot-starter-test&lt;span style=&quot;color: #808080;&quot;&gt;&amp;lt;/&lt;/span&gt;&lt;span style=&quot;color: #569cd6;&quot;&gt;artifactId&lt;/span&gt;&lt;span style=&quot;color: #808080;&quot;&gt;&amp;gt;&lt;/span&gt;&lt;/div&gt;&lt;div&gt;&amp;nbsp; &amp;nbsp; &amp;nbsp; &amp;nbsp; &amp;nbsp; &amp;nbsp; &lt;span style=&quot;color: #808080;&quot;&gt;&amp;lt;&lt;/span&gt;&lt;span style=&quot;color: #569cd6;&quot;&gt;scope&lt;/span&gt;&lt;span style=&quot;color: #808080;&quot;&gt;&amp;gt;&lt;/span&gt;test&lt;span style=&quot;color: #808080;&quot;&gt;&amp;lt;/&lt;/span&gt;&lt;span style=&quot;color: #569cd6;&quot;&gt;scope&lt;/span&gt;&lt;span style=&quot;color: #808080;&quot;&gt;&amp;gt;&lt;/span&gt;&lt;/div&gt;&lt;div&gt;&amp;nbsp; &amp;nbsp; &amp;nbsp; &amp;nbsp; &lt;span style=&quot;color: #808080;&quot;&gt;&amp;lt;/&lt;/span&gt;&lt;span style=&quot;color: #569cd6;&quot;&gt;dependency&lt;/span&gt;&lt;span style=&quot;color: #808080;&quot;&gt;&amp;gt;&lt;/span&gt;&lt;/div&gt;&lt;div&gt;&amp;nbsp; &amp;nbsp; &amp;nbsp; &amp;nbsp; &lt;span style=&quot;color: #808080;&quot;&gt;&amp;lt;&lt;/span&gt;&lt;span style=&quot;color: #569cd6;&quot;&gt;dependency&lt;/span&gt;&lt;span style=&quot;color: #808080;&quot;&gt;&amp;gt;&lt;/span&gt;&lt;/div&gt;&lt;div&gt;&amp;nbsp; &amp;nbsp; &amp;nbsp; &amp;nbsp; &amp;nbsp; &amp;nbsp; &lt;span style=&quot;color: #808080;&quot;&gt;&amp;lt;&lt;/span&gt;&lt;span style=&quot;color: #569cd6;&quot;&gt;groupId&lt;/span&gt;&lt;span style=&quot;color: #808080;&quot;&gt;&amp;gt;&lt;/span&gt;org.springframework&lt;span style=&quot;color: #808080;&quot;&gt;&amp;lt;/&lt;/span&gt;&lt;span style=&quot;color: #569cd6;&quot;&gt;groupId&lt;/span&gt;&lt;span style=&quot;color: #808080;&quot;&gt;&amp;gt;&lt;/span&gt;&lt;/div&gt;&lt;div&gt;&amp;nbsp; &amp;nbsp; &amp;nbsp; &amp;nbsp; &amp;nbsp; &amp;nbsp; &lt;span style=&quot;color: #808080;&quot;&gt;&amp;lt;&lt;/span&gt;&lt;span style=&quot;color: #569cd6;&quot;&gt;artifactId&lt;/span&gt;&lt;span style=&quot;color: #808080;&quot;&gt;&amp;gt;&lt;/span&gt;spring-webflux&lt;span style=&quot;color: #808080;&quot;&gt;&amp;lt;/&lt;/span&gt;&lt;span style=&quot;color: #569cd6;&quot;&gt;artifactId&lt;/span&gt;&lt;span style=&quot;color: #808080;&quot;&gt;&amp;gt;&lt;/span&gt;&lt;/div&gt;&lt;div&gt;&amp;nbsp; &amp;nbsp; &amp;nbsp; &amp;nbsp; &amp;nbsp; &amp;nbsp; &lt;span style=&quot;color: #808080;&quot;&gt;&amp;lt;&lt;/span&gt;&lt;span style=&quot;color: #569cd6;&quot;&gt;scope&lt;/span&gt;&lt;span style=&quot;color: #808080;&quot;&gt;&amp;gt;&lt;/span&gt;test&lt;span style=&quot;color: #808080;&quot;&gt;&amp;lt;/&lt;/span&gt;&lt;span style=&quot;color: #569cd6;&quot;&gt;scope&lt;/span&gt;&lt;span style=&quot;color: #808080;&quot;&gt;&amp;gt;&lt;/span&gt;&lt;/div&gt;&lt;div&gt;&amp;nbsp; &amp;nbsp; &amp;nbsp; &amp;nbsp; &lt;span style=&quot;color: #808080;&quot;&gt;&amp;lt;/&lt;/span&gt;&lt;span style=&quot;color: #569cd6;&quot;&gt;dependency&lt;/span&gt;&lt;span style=&quot;color: #808080;&quot;&gt;&amp;gt;&lt;/span&gt;&lt;/div&gt;&lt;div&gt;&amp;nbsp; &amp;nbsp; &amp;nbsp; &amp;nbsp; &lt;span style=&quot;color: #808080;&quot;&gt;&amp;lt;&lt;/span&gt;&lt;span style=&quot;color: #569cd6;&quot;&gt;dependency&lt;/span&gt;&lt;span style=&quot;color: #808080;&quot;&gt;&amp;gt;&lt;/span&gt;&lt;/div&gt;&lt;div&gt;&amp;nbsp; &amp;nbsp; &amp;nbsp; &amp;nbsp; &amp;nbsp; &amp;nbsp; &lt;span style=&quot;color: #808080;&quot;&gt;&amp;lt;&lt;/span&gt;&lt;span style=&quot;color: #569cd6;&quot;&gt;groupId&lt;/span&gt;&lt;span style=&quot;color: #808080;&quot;&gt;&amp;gt;&lt;/span&gt;org.springframework.graphql&lt;span style=&quot;color: #808080;&quot;&gt;&amp;lt;/&lt;/span&gt;&lt;span style=&quot;color: #569cd6;&quot;&gt;groupId&lt;/span&gt;&lt;span style=&quot;color: #808080;&quot;&gt;&amp;gt;&lt;/span&gt;&lt;/div&gt;&lt;div&gt;&amp;nbsp; &amp;nbsp; &amp;nbsp; &amp;nbsp; &amp;nbsp; &amp;nbsp; &lt;span style=&quot;color: #808080;&quot;&gt;&amp;lt;&lt;/span&gt;&lt;span style=&quot;color: #569cd6;&quot;&gt;artifactId&lt;/span&gt;&lt;span style=&quot;color: #808080;&quot;&gt;&amp;gt;&lt;/span&gt;spring-graphql-test&lt;span style=&quot;color: #808080;&quot;&gt;&amp;lt;/&lt;/span&gt;&lt;span style=&quot;color: #569cd6;&quot;&gt;artifactId&lt;/span&gt;&lt;span style=&quot;color: #808080;&quot;&gt;&amp;gt;&lt;/span&gt;&lt;/div&gt;&lt;div&gt;&amp;nbsp; &amp;nbsp; &amp;nbsp; &amp;nbsp; &amp;nbsp; &amp;nbsp; &lt;span style=&quot;color: #808080;&quot;&gt;&amp;lt;&lt;/span&gt;&lt;span style=&quot;color: #569cd6;&quot;&gt;scope&lt;/span&gt;&lt;span style=&quot;color: #808080;&quot;&gt;&amp;gt;&lt;/span&gt;test&lt;span style=&quot;color: #808080;&quot;&gt;&amp;lt;/&lt;/span&gt;&lt;span style=&quot;color: #569cd6;&quot;&gt;scope&lt;/span&gt;&lt;span style=&quot;color: #808080;&quot;&gt;&amp;gt;&lt;/span&gt;&lt;/div&gt;&lt;div&gt;&amp;nbsp; &amp;nbsp; &amp;nbsp; &amp;nbsp; &lt;span style=&quot;color: #808080;&quot;&gt;&amp;lt;/&lt;/span&gt;&lt;span style=&quot;color: #569cd6;&quot;&gt;dependency&lt;/span&gt;&lt;span style=&quot;color: #808080;&quot;&gt;&amp;gt;&lt;/span&gt; &amp;nbsp;&lt;/div&gt;&lt;br&gt;&lt;div&gt;&amp;nbsp; &amp;nbsp; &lt;span style=&quot;color: #808080;&quot;&gt;&amp;lt;/&lt;/span&gt;&lt;span style=&quot;color: #569cd6;&quot;&gt;dependencies&lt;/span&gt;&lt;span style=&quot;color: #808080;&quot;&gt;&amp;gt;&lt;/span&gt;&lt;/div&gt;&lt;/div&gt;&lt;/div&gt;&lt;/div&gt;" style="text;html=1;align=center;verticalAlign=middle;whiteSpace=wrap;rounded=0;strokeColor=default;" parent="1" vertex="1">
          <mxGeometry x="-569" y="-389" width="485" height="705" as="geometry" />
        </mxCell>
        <mxCell id="IqcgO0fhXSd2waFjPhRO-8" value="" style="shape=image;verticalLabelPosition=bottom;labelBackgroundColor=default;verticalAlign=top;aspect=fixed;imageAspect=0;image=data:image/png,iVBORw0KGgoAAAANSUhEUgAAAsIAAAEQCAYAAAC6DBJgAAAAAXNSR0IArs4c6QAAAARnQU1BAACxjwv8YQUAAAAJcEhZcwAAEnQAABJ0Ad5mH3gAAGFgSURBVHhe7f1ZbCPpmid2/yOCOymSIiVR+y6l1lRuVVlLZm2nznGd7j49Rs9Mz0EvV7YBj2GPx/fGQeO7/TzwzQAD9PcBNuAzds9M97QbZ9x9purUmllVmZWrUjslUQslcae472T4QmSUSClTVO6Z/P8AAlURL0NUKvjEE+/7vG8I+XxeBhERERFRgxFrNxARERERNQImwkRERETUkJgIExEREVFDYiJMRERERA2JiTARERERNSQmwkRERETUkJgIExEREVFDYiJMRERERA2JiTARERERNSQmwkRERETUkJgIExEREVFDYiJMRERERA2JiTARERERNSQmwkRERETUkJgIExEREVFDYiJMRERERA2JiTARERERNSQmwkRERETUkJgIExEREVFDYiJMRERERA2JiTARERERNSQmwkRERETUkJgIExEREVFDYiJMRERERA2JiTARERERNSQmwkRERETUkJgIExEREVFDYiJMRERERA2JiTARERERNSQmwkRERETUkJgIExEREVFDYiJMRERERA2JiTARERERNSQmwkRERETUkJgIExEREVFDYiJMRERERA1JyOfzcu3GV9Wn36/UbiKiBtVk1OLts/21m19/MvDpDcZCIjq9zlYzpoY7aje/1l6rRPhf/n//FvFUrnYzETWgD98Ywp/93qXaza89WQb+6//Pv6vdTER0on/60xl88s5Y7ebX2muVCP/5//xrBPZTtZuJqAH92e9faNhE+Of//V/WbiYiOtG//NP3Gi4RZo0wERERETUkJsJERERE1JCYCBMRERFRQ2IiTEREREQNiYkwERERETUkJsJERERE1JCYCBMRERFRQ2IiTEREREQNiYnwCzQ26MB/98ur+J/+/AP80ccztbuJiF5rH799Bv/Tn3+Af/Gn7+OtcwO1u4mInrmGT4QPJ6OV17/8sw/w3/3yKv7o4xl0tVtr3/LUdLZZ8MnbY/j9KxO4PNVbu5uI6LnTqCX8ye9fUuLhn//iDWjUUm2zp2J6uAO/f2UCP39nDKO9rbW7iYieuYZPhA8no5XXH1ydwB9encQf//Qc/tnPzsNmNdS+jYjotTTc13okHp4ZcNQ2O5UPL4/if/yz9/GTt87U7iIieqEaPhE+bG7Ng//l//gK/+6ze4gmM2ixGvHO2X6MPeFFgIjoVXF+rBvNTXqks3kk0zmYjXpcnOipbVY3jVrCTy+P4g+uTuLsSEftbiKiF0r61a9+9Re1G19Vf/vFA6Qy+drNjzTQbcdb0/1QqyTcXnTj1//pFjZ3wxjpa0WPwwpBFLCxG8bCuhcAcGbAgZ9fGccHb4zg7ZkBXJrsxUC3HZF4GvFkRjluPe0O/2xPMIbf3XDCZjXgDz+cxsdvncEbk72QVCJ2vBHluERUn7OjHTg70lm7uSH827+/U7upLhq1hD/+2Xn0tDdjNxBFJJ5GW7MJxZKMr2+voViSAQBnBh34Z//FBbx7bhCdbRYsuXwAgJ+8dQb/6INpvDHVC1EUIQP4xftTuHJuEDqNCjqNGgPddkyNdMC/n8DkUDtGe1tRKJSw44/gwngP3j0/iMvTfejrssETjCFdjukatYSP3jqDn709hnfPD+Kts/04O9oJg06Dbc++8jv80ccz+C/eGUenwwKzSYdfvD+Nd84NQK1RVbUjoqPeOtuH4Z6W2s2vNfYIH0OtVkGvVQMAcvkiQtEUAGCkvw1/+nsX8Y8/OotfXD0YMvzFe5P4Jx/P4E9/7yK6y/XE9barpVFL+IP3pvBPfjKDn78zhlabCcFIsrYZEdEzMdzXir4OGyDLWN8NYX0nhJIso7e9GZOHbiq6yiVlf3C1en7D2ZEO/MHVCfzeu+MY7WvF1HAHPnlnDGajDgDQ2WrGz946g/fOD8Fq/rHkTJJEXBjrxh++P4lfXJ3AL65O4J/8ZAafvDOutPn5e5P4k08u4B8davNfvj+FP/u9i/j47R9LLi5P9R6Ut703hT/5+UX8o/cn8XvvjmGkhzXIRHQUE+FDpoc78D/+2Qf45//0XQz3tCCXL2B+3YtZ5y4A4KM3R3BpvBt6nQa3Ft34V7/+CrPOXViMOlw9P4j3Lw6fql2tn7x1Bp+8MwaLUYfFDR9+/f/cxuqmv7YZEdEzUSmLyBWKWN0KYNHlRTqTh8Wkw5uTp5/Qu7odwI25LeQKRQDA/LoH/+v/+TX+f//399j1/TjSpZJE6LVq/IffzeJvvniAZCYHm9mAK+cH0WZvwmh/G35xdQI9Diui8TT+7W/v4t/+9i7S2TyGulvwX34wjb5O26GfDDhsJgx02uHcDuDTG05s7IWq9hMRgYlwtd72Zvzi6gSunBtAk0ELCEA2V0CpWIJaLWFqqB0atQrRRAZ/99U8/uHaIj6/tYpkJge9Vo2Z0c6629XSqFX4xx+dRYvVhG3fPv7t3zMJJqLnR62WcHb4IIbtx9K4vejG7cVthKMpqCQRYwNtsJr1tW97JJc7iAWXF8ViCQCw64/is++Wce32OvbLI20AIMsyFjd8+I+fz+I/fHYf/nACAGA16dHabML0SAfa7U0oyTIerHvxHz+fxX/8fBbO7QAEAehxWDE22K4cDwAEQcDN+S38///2Bv7df76HB+UODSKiw5gIHzK35sG/+vVX+N9+8wO2vftQSRLGB9pwaaoPnW0WNJsOLgLJdA7zq3sAAG8whmyuAACwNunrblerx2FFT3szBADBSBKL5ZpkIqLn4cyAA/2dBzHIqNPgH/9kBn/y80swmw7KGrpaLRgbqE42n5ZiScauP4poLI1gOIFYeR6FIAqQVCIc9iZoVCqUSiV4AjFEY+mDtuXSMY1agt1SvbpPvlDC/ZVdzDn3sOuLIBz5MfEmIqpgInzItncf/3BtEX/3xRxmVz2QSzLamk0Y6W1BJldAST6YKCIIB70nB/8tKO8XgLrb1WoyahFNpIFyUnz5bH9tEyKiZ+bSRA/MxoOb9CajFj9/Zwy/uDoBSzkRNht1x45mHaZRPd56w7IsI18unwCg9CBXFIolyJABCBDEQ7H0UFwVD21H+Zjp3OkmTxNR42EifAyNWoJeqy4HWQFqSUJoPwH//kHvg9mow5tTfQCAoW47DDoNZBkIRJJ1t6vl9kbwf/72rjJL+48+PIvxoWfT+0JEdJhaLWFysB1qlYhoIoNf/8Md/Ktff4V/9euv8Ot/uINoIlNVHlEslpQVJMxGHWwWAwZ67OjtaK49dBWTQQu1WoLNYoDJqK3d/VA7viiyuSIkUcBQlw2OFjMcLWZ0OyxAuQPCE4zVvo2I6ERMhA+ZHu7Av/jT9/HP/9kVnBvthCgKSKSyWHUHUCiU8N2DDcRTWZgMWvzRR2fxL/70fXzy9jj0WhUSqSxuzm/V3a5WOJbC775fwTf31pErFDHS24J/9MEUmmuG+4iInrYzAw70Og5Ws/EEY/jbzx/gH64t4h+uLeJvP3+gJJmV8gjXTgiR+EGpQWerBf/8n13Bf/NHb6PH0YzygJhiP5pCOnvQMzve78D/8Cfv4b/6o7cxdIolmu4uueHc9kMGMD7gwH/7T9/Ff/tP38Vgpx0lWcbqdhCzK6wBJqLTYyJ8SG97M/7wvUl8eHEY1iY9PMEY/u6bedycO0hcv7mzjr/7eh6B/QQGumz4w/cm0dNuhTcUx999M49v72+cqt1hsiwjkcri//5yDssbfkiSiDcmevExn8RERM/YpfEemE16lGQZm3thROMHZVoAEI2nsbkXRkmWlfIITyCKz246EdhPQK9T44MLw5gYcGB2dQ/JdK7q2K6dEG7ObyGZzqG12YRP3h7DpfEeGPX19wh7AzH8X//5Lu6v7EKtknBlZgBXZgYAAHeXd/DvPruLYHmCHRHRaQj5fL7m/v3V9ef/868R2D/dhIhOhwWTQx1QSdX3BKWSjFgyg9UtP4LlUgcAaGk2YrTfgSajFqIgPFG7wz87FEnih3LCffZMJzrbrBDKvTP3l3aU4xJRff7s9y/gz37vUu3m154sAz//7/+ydvMjTY92otthhQxgczeE5fIDMirGBh3o77JDALAXiGJ2eRctNhPOlGOcgIMVdty+CHocVqjVElzuEFa3Dla+6e+yY7DHDq1aBRlAJpvHwpoHjhYzehxWlGS5qv2b032wW43I5AqYXdlFOJKESiVipK8NnW0WpRY5my9gzx/F2vbBqN3h9xaKJSyse7Dnix76TYjoUf7ln76HT94Zq938Wmv4RJiIXk9MhImITqcRE2GWRhARERFRQ2IiTEREREQNiYkwERERETUkJsJERERE1JCYCBMRERFRQ2IiTEREREQNiYkwERERETUkJsJERERE1JCYCBMRERFRQ2IiTEREREQNiYkwERERETUkJsJERERE1JCYCBMRERFRQ2IiTEREREQNScjn83LtxlfVX/3nu0jn8rWbiagBDXbZ8f6F4drNrz1ZBv73/3SzdjMR0YnO9Dnwztn+2s2vtdcqEQ5H45Dl1+bXIaInIMsCWpqbajc3hFAkVruJiOhExZKANltjxc3XKhHOZrIoyaXazUTUgFQqFdRqde3mhpBOp2s3ERGdSKPRQJKk2s2vNdYIExEREVFDYiJMRERERA2JiTARERERNSQmwkRERETUkJgIExEREVFDYiJMRERERA2JiTARERERNSQmwkRERETUkBr+gRqyLCORSAAATCYTBEGobQIAyGQy+Pbbb5HJZHDhwgV0dHTUNiF6JtxuN/x+P1QqFcbGxqDVamub0DH4QI3TYSyk1wnj5uNpxAdqNHwi7PV6cf36dahUanz44QewWCy1TQAAsVgMf/mXf4loNIpf/vKXmJycrG3yUKFQCKurqwiFQjDoDdAb9LDZbBgdHa1tSnTE3bt3sbKyAp1Oh5/+9KcwmUy1TZ66QCAAt9sNi8WCwcFBZZvP50MulwPKAbOzoxP2FrvyvrW1NUSjUeX/K8xmM0ZGRgAAoWAIm1ubtU2UC5ZarYbL5UIsFkNvby9aWlpqm9aFifDpvKhYODIyArv9x3OI6Gl4VeJmsViE0+lEKpWqOhYAtLW1oaenB6gjtpZKpacSNxsxEW740ohMJoPl5WWsrjof6+Jxkp2dHXz66afwer0AgGKpCK/Xiy+//BJOp7O2OdELl8vlsLy8jPX1dRSLRQDAxsYG5ubmsLKyAqfTCafTieXlZczNzyEYDCrv3d3dVfYffu3u7iptItHIkf1OpxMulwv5fB6CIKBYLGJ9fR1OpxP5fF55Lz07zzoW3rhx49hY+OmnnzIW0ivvceNmsVjE5ubmkXjodDoRCASU458UWxk3H1/DJ8Ktra345JNP8PHHH8NsPr4H5HGFQiH87ne/g9lsxqVLl3D16lVMT0+jvb0do6Oj+PLLLxEKhWrfRvRCeTwe+Hw+WCwW9PT0QBAE5HI5RCIRtLa2YmZmBlNTU1CpVPB6vdjY2IAsy5BlWbkAtLW14eLFi8prePigNxjlwA8Aer0eMzMzSpuzZ89Cq9VCEAT09PTAaDTC4/FWXQzo2XnWsfDatWtVsXBoaAjt7e0wm824efMmYyG90p4kbpZKByPZfX19VXGz0htcT2xl3Hx80q9+9au/qN34qioWipBxukqPUCiMtbVVZDIZtLe3Q6fTAQCCwSBu3bqFhYUFbG9vQxAErK+vI51OY2pqCm1tbbWHOuLOnTvwer34/d//fbS2tkKr1eL69evY3NzE8PAw3G430uk0hoaGat9KL1AoFMLy8jK8Xi+MRqNSW5ZOp7G4uKjcgTc1NSEWi2FzcxNutxt7e3vwer2IRqMwGAzKsHwwGMTS0hKSySSMRiOcTifcbjdEUVSG6wKBAFwuF3Z3d7G3t6cEMZPJBI/Hg1AoBK1WC6vVis3NTezu7sLv96NUKqGpqUn57KlUCltbW9je3sbu7i68Xi/C4TA0Go1ybmezWSwuLsLr9cJisWB3dxculwvxeBxWqxULCwuIRCIYGBhAd3c3UE5ajUYj+vr60N3dDbvdDo/Hg2QyCUEQ0N/fD1mWle/IwMAAJiYmYLfbYbfbYTablc+4u7uLQCAAi8WCS5cuobW1FXa7HTabTRmSU6lUiMViCAQOavw6OzsfWrP6MKIovvJDfNlsDtvbOzAYDFCp6v9dCoVC7aYTPetYGIvFqmLhb3/7W/h8PrzxxhtYXFyEwWBAZ2dn7VvpFbG3twen04lgMAir1QqVSgUAiEQiWFpagsfjgVarhVarhd/vx+bmJnZ2drC3twe/349MJoOmpiaI4kH/3Elxs1QqwePxKHHT6/UiGAxCo9FAr9efKm4+aRw3GAyPHTcLhQLW1tZQLBYxMTGBoaEhJW4ajUag3HlQT2x9GnFTkiTlb9AoGj4R3t7ewm9/+1v4/X5MTEzAbDYjFovhiy++wL1797C5uYm9vT3s7+8jFoshn8/XHfw/++wznDlzBmfOnFG23blzB263G9PT02hubsbc3BzefPPNqvfRi5VMJjE7O4tAIACTyaTUWnm9XszOzmJ/fx/d3d0wm83weDyYn59HMBhEJBJBKBRCOBxGLpdDS0sLJEmCx+PBgwcPkEwmkUwmsb6+Dp/PB5vNBrvdjp2dHSwtLcHtdiMQCCAUCmF/fx8WiwUtLS1KQBcEAYlEAjs7OwgGgwiHw0gkEmhuboZerwfKF53Z2Vn4fL6qz5NOp2Gz2aDRaJDJZHD79m0Eg0EUi0W4XC54PB6USiW0tbVhaWkJpVIJExMTSqKu0WjQ3NwMg8GgBMnNzU2kUilYLBb09/crwTqbzQIA9vf34fV6lQtH5cK4s7ODUCgEURCRSqeOTdYrw3y7u7soFAro7e1V3l+v1yERzmQy+P772+jv74FGo6nd/VCPkwg/71h479497O3t4c0330QkEkE4HMbExETV++jVEQqFMD8/j1AohJaWFiXRXF9fx+LiIhKJBPr7+6HT6bC8vAyXy4VwOIz9/X2EQiFEIhFIkgSbzQaUe1gfFjdtNhtcLheWl5exu7uLYDCoHKOtrU2JzfXGzSeN43q9/rHjZi6Xw9raGkqlEorFIoLBIHw+H7LZrHJjkM/n64qtTyNuNmIi3Fi/bZ02NjawsLCAQqGAt956Cz/96U9htVqVk7BesVjsyEn47rvv4pNPPkFfXx9MJtOpj0nPntVqhc1mQ6lUgtfrRbFYhCzL8Hg8KBQKVclxU1MTBgcHce7cOZw/fx4jIyPI5/PY3NxEJBKpOm4ikcD29jbsdrtyR5/NZuF0OuHz+WAwGHDu3DlcvHgRo6OjygWh4mCyhYCZmRlMTExAkiSEQiG43W6ljV5vQG9vL2ZmZnD+/HllItPu7i58Pt+hox0kSxsbmxBFEWfOnEFvby/S6TSy2Sy0Wm1VjwnKQbZiZ2cH8Xgcoiiis7MTkiQpgRzlHu5KDdvi4iJWVlaUfZVJI6l0Ck6nEysrK1heXsb8/Dzi8bjyMywWi5K4HzeRpFFEorHaTc/N04iF6XQaXq8XDoejavtHH32ETz75BFarFWazmTWNr7i2tjaYTCYUCgV4PB4AQD6fh8/ngyzLsNlssFgsEAQBra2tGBsbw/nz53HhwgW0tbUhFovB5XIp8aHiuLiZSCTgdDoRDodhs9lw4cIFXLhwAUNDQ0fiVj1x80njeCqVeuy4mcvllPKISq/6ysoKFhYW4HK5lH31xFYwbj4WJsI1ZFnG1tYW8vk8Wltb8e677+Ltt9/G22+/DYPBUNv8oW7euAkA6O3trdre3d2N8+fPQ6vVYn19/UiyQy+eWq1GZ2cnRFHE/v4+4vE40uk0AoEABEFAZ2enUi6hVqshiiKSySQikSiSySRkWUY+n0cymaw6bqlUQldXF6ampjA2Ngar1YpEIoH9/X2Iooi+vj6cOXMGo6OjGBsbO3JuSJKEwcEBpWfNaDRCluWqmcSSJEKtViOdTiMajSIejytB9HCSifK5bjQaMDMzg/HxcfT09CCVSqFQKECj0Ty0BzIQCGB5eRnZbLZqVrNKpcL4+LhyMTl37pxykVhfX8f+/j5QroM7e/aschGs9Cbv7u5ie3tb+TkajQZqtRrFYhGZTEbZTs/H04iF6XQat27dgslkOlL2cDgWhsNhLm/1itPr9XA4HBAEAX6/H9lsFrFYDNFoFJIkobu7Wxmh0Wq1SkyKRKI/3hynUkduiI6Lm5W4rFKpMDw8rMTEM2fOHElE64mbTxrHnyRu6vV6TE1NKXHz7NmzStnd6uoqkslk3bEVjJuPhYlwjWKxqJxUzc3NyhJCNpvtyBfsYW7euInbd27jgw8+UE72Wqurq1heXsbFixdrd9FLoFIjmc1mEQwcDLulUiklSa4Mty0uLmJ9fR0bGxuIxaIoFApKD0BlAkSFKIro6uqC3W6HVquFJElIJBLI5/MQRRE2m00ZktJqtUdGE1QqlZIca7VapYyg8nNyuRyWlpawvrauBMdcLqccs/bzoHxed3Z2QqfTQaPRoFAoQJZlqNXqY8sKYrEYFhYWsL+/j9bWVkxOTipJkVqtxtDQUNVFaWR4BJIkIZPJIFSeDNXZ2YmxsTGlTWUosVQqKfV7KP97iaKIYrF4pJfoVRKLJR7/FT9Y1zebzR3d94jX0/CksbCSBK+treGnP/1pVS3jYbOzs9jY2MDZs2drd9ErRBAEdHV1QaVSKTf4lSH+SpKMchnC0tIS1tbWsLe3h2QyAVk+KGmUy5PHDjsubsZiMZRKpapSCpSTytph/ZPi5tOI408SNw0GA0ZGRpR4ODY2hr6+PoiiiEQigVgsVndsxWsUN58nJsLHqHwBDn8pBUGoq+i8kgS//fbbuHDhgrJ9dXUVs7OzWF1dxZdffokbN25gfHycawm/pEwmE1pbWw/KI3xepSzCZrPBarUC5YC+vb2NXC6H0dFRTE9PY3Bw8NhAiPI5VJvcVrbXBv/jHH7/cedjOByGy+VCMpVEX18fpqencebMmWN/ZsWj9tWKxWKYn5+H3++H3W7H5OTkkfpQQRCUC5EoirA2W4/99zi8rampSekNrL3oVNTz7/Oycbm28MMP93D37uxjv+bnlwAAc3OLR/Y96vW0PEksrCTBly9frlpreHZ2tioW3rp1C+Pj4xgeHq56P716KuUPhUJBKceSZRkOhwMGgwHF8pwEn88HjUaD6elpTE1NobW1tfZQiuPi5mniwUlx82nF8YepJ25WkleUY6PVaq367uEUsfWw0/w7NTImwjVUKpWS6FSK7wHA7/cjFnt0rV46ncY3177B+XMHQ76VbTdv3MQXX3yB+fl5zM7Owu/3Y3JyEu+99x6HA19SkiShq6sLkiQhHA4jEAhALNd1VWYRx+NxFItFSOVhv5aWFpSKP9Zy1cNgMEAq19f6/X7lvalU6tjF0x8lmUwq6/B2dHSgra0NoiieauKUSqWCWJ6ccfh98XgcCwsL2NnZgd1ux/T09JGaz0wmg2AwqAxtFotF+P1+FAoFSJKk9PoGg8GqdWrD4bBSy3Z41nilpEMUxYcON76sdnc9ePBgEZlsFlarBQ5H62O92loPatFPe4yn4UliYSgUws2bN6uS4FAopCS+8/PzcDqd8Pv9uHDhAt57773aQ9ArSKPRoKOjA0K5PKIyT6arq0vppayUaBkMBvT09MBisZyq5hzljopKbPP7/cqNWjweP1LKcJKnEcefJG4mk0mEQiGlE6DyO5VKJahUKhgMhrpia8WrHDdfFCbCxxgcHIRGo0EoFMJnn32Gv//7v8c333xzYuF5pSZqYvJg5nM6ncb8/Dy+ufYNurq6cO7cOYyPj+Odd97BhQsXHjpUSC+H1tZWNDU1IZ1OI5lMQqfTob29XdlfSdoKhQJWVlYwOzuLddd61TFOYjab0dzcDFmWsb29jbt37+LOnbu4f/++MuGkXpXZw6XyE4ZmZ2eVmcz1qiTm2Wy2KuhWlgqqDLft7u7i7t17ymeNxWJIJBJYWFjAvXsH2+/evavMhm5ubobNZkOxWMTq6iru37+PO3cOfte5uTmkUilotVpl2SGUE+t8Pq9cDF4lLtcWSnIJZ89OYHLyDMbHRx/rNTw8AAAYHh44su9Rr6flcWNhLBZDLBarSoIXFxfx7bffor+/H+fOncOZM2cYC19DlTkUiUQCmUwGZrNZmVwsSZKyJFgikcCDBw8wOzuLYDB4pKf2UVpaWmAymZR4cvfuQbyZnZ1FOPxjvWw9nkYcf5K4GQ7v48GDB0rsv3fvnjJXwuFwwGQy1RVbK17luPmiMBE+xsDAAN544w1otVrMz8/j3r17MJlM6Orqqm16rFQqhXQ6jfX1dXz//fdQqVS4evU9TE5OYnJy8qF1w/Ry0ev1aGtrg1xezLy1tbXqzrujowPt7e2QZRkbGxtwuVxoamo6MsntUbRaLcbHx9He3o5sNou1tTWsrjrh9XqVntF6NTc3o7e3F6IoYmdnB2tra0ovdr0XGaPRCJ1Oh1wup/TcVHofKj0kkUjlyXArcDpXsLq6ilQqBUmSkEwmsbGxAadzRVn3sru7G5OTk9Dr9RAOLe+zunpwjEAgAKvViunp6aoh0kgkgnw+r6zF+SoJ70fQ7miD1WJ+pR/z/KSxMJ1OI11ef3tlZQW9vb144403MTk5ieHhYcbC15DZbIbNZlPqZjs6OpSRT0mSMDg4iKamJqRSKaysrMDj8aCnp0ep3a2HyWQ6WLHBZkc8HofT6cTq6iqCwSDU6vrLFvCU4viTxE1RFBCLxbC+vq7ETVmWMTAwoDxyvp7YWvEqx80XRcjn869NEUk2k0VJrr/3C+WeCqfTCUmSqtb/i0ajcLlcyGQy0Gg0GBgYwP7+Pvx+P0ZHR2G3Hzwn/LBIJIJ/82/+DQYGBqAtLxoOGbhy9UpVjRy9Oip/cwCw2+1Hnt9eWZdSlmWoVCq0tbUhmUwiGo2ivb0dFosF0WhUSWw7OzuPBCdZlpWh50rQ1Gg0SuLt9/uxv78PlUqF3t5eJbHa2dlR1pGs9KRGo1EEAgEUy0N9drsdsiwjEAigubkZbW1tyOfz2N7eRqFQULZVlEol3Lx5E5ubm5iYmMDMzAyKxSLcbvdDhy8rv5dGo4HP50M6nVZ6oVXliSrNzc1A+XcNBAKIx+PKEKJYXiC/ra1NqXmTZRk//PADNjY2MDIyggsXLtSdzFeoVKoXloT+9d/8BpMTBz3BTyKRSOKv/+Y/4Z/84z+AyVT/Re1w6Um9nmYs9Pl8+Nf/+l8rJWJutxsOhwPvvPMOk98GUHkgBQC0t3fAYvmxx79QKChr4KLcm9rS0gKv14tSqaTEuJPiZrFYRMAfQDxxsDKOIAhKaUbl+ltv3HzSOP4kcVMURfjLq2xUano1Gk3VWsz58jJ0j4qteEpxU6PRKHG4UTR8Ivw0ZbNZLCwsVJ34ra2tnARCr5SdnR3cuHEDJpMJ77333gsZXovH4/j666+Ry+Xw7rvvHqmrq8eLToTPzUwppQ2PK5/P4/vv7+Dtty+e6nd5nET4acpms7h7927Vtu7ubibB9Np6XeImE+FX3ItOhIleB7lcDnfv3oXb7cbU1BTGx8drmzxTpVIJCwsLWFpaQn9/P86fP3+qJLDidUiEASASicFqPV0N7YtOhIkazesSNxsxET5dESIRvfY0Gg3GxsYwMzOjrB37PAmCgObmZpw7dw6jo6OPFcxfJ6dNgono+XuZ4uaZM2caPm6eBnuEiei19Lr0CD8O9ggT0eNgjzARERERUYNgIkxEREREDYmJMBERERE1JCbCRERERNSQmAgTERERUUNiIkxEREREDYmJMBERERE1JCbCRERERNSQmAgTERERUUNiIkxEREREDYmJMBERERE1JCGfz8u1G19V2WwWsvza/DpE9AREUYRGo6nd/Fz89d/8BudmpjA8PFC767nIZDK1m4iITiRJEtRqde3m1xp7hImIiIgIgiDUbnrtvV49wpksSnKpdjMRNSCVSvXCejZedI9wOp2u3UREdCKNRgNJkmo3v9bYI0xEREREDYmJMBERERE1JCbCRERERNSQmAgTERERUUNiIkxEREREDYmJMBERERE1JCbCRERERNSQmAgTERERUUNiIkz0illfX8f6+nrtZqInVigUMDc3h88++x0+/fRT5Vzb3d2tbUr0yigWi1hZWeF5TMfik+WIXjFfffUVAOCDDz6o3fVUFQoFrK+vo7m5GW1tbSgWi/D7/QiFQigUChBFEU1NTeju7lae4FYsFrG2tnbkyWYqlQojI6PQajUAgFAoBLfbXdUGAFpbW9HV1aX8bIvFgvb29tpmdeGT5U5vfX0dX375JXp6eqDRaNDT04P5+XlYrdZndr5Fo1HcuXMHzc3NmJmZgShW98+sr68jFArhwoULUKlUVfuI6pHL5fD555/D4XDgwoULtbufqmcZN3d3dxEIBKraAEBPTw/sdjtisRjcbjf6+/thNBprm9WFT5YjIirzer1wuVzK/29vu7G6uqoE62w2i7W1Nayvr6NUOrgBLRaLcLlciEQiyvtQfn794UfYRyIRuFwu5X0Vh59zn0gksLy8fOTiQM/OysoK1Go1rly5gitXrqC3txcjIyPo6empbfpYFhYW4PP5qrbF43F8//33+Oabb+DxeKr2AcD29jZmZ2dRLBZrdxG9dJ5l3PT5fMd2IFTipiiK8Hg8cLlckOXXpo/zmWMiTERH5PN5rK+vw2azwW63AwA0GjU6OzsxNjaGiYkJTExMwGq1Yn19HalUCigH9EKhgM7OTqXNxMQERkdHodEc9GoAQCaTgV6vx5kzZ6raORwOoNwTMjAwgEQicSRxomejWCxif38fDkc7jEYj1Go1NBoNJicnMTQ0VNv81PL5PO7cuYNgMFi7CzqdDhqNBjdv3kQmk6ndTfRKeNZxM5fLoampqapN5XgAYDKZ0N3dDbfbjWQyqbyPHk361a9+9Re1G19VxUIRMk53FxSNRnH37l2YTCYsLS1hfn4eLpcL8Xgczc3NylBcqVSCx+PBgwcPsLKygvX1dQQCAZjNZmi12qpjGQwGPHjwAIuLi9jc3EQ+n4fFYoHT6cSDBw+wtraGYDCIlpaWqqE+WZbh8Xhw584dOJ1O7OzsQKPRwGQyVfWU0Yvj8Xiws7OD5ubmqiHcaDSKtbU1JYEIBoPY2trC3t4efD4fIpGIcrFHuRfM5XLBYDDA7XbD7XYjkUigubkZgiAgEolgc3MTu7u7yvubmpqgUqmwubkJWZah0+mwubkJj8eDYCAIQRSqhsMSiQS2trawu7urtJEhw2QyKW1cLhdSqRTy+Txc6y54fV7odDokk0k4nU6Mj4/DYrEAAJqammCz2aDVaiFJEjQaDUqlEra3t9HR0QGj0YhsNouNjQ309PTAZrNBkiTlddjOzg5yuRxGR0ehUqmUNof/TTUaDQKBAOLxOLq6uo4MmZ9EFMUjP/d5WVxyor29DTZbc+2u56JQKNRueqRIJIKbN29ibW0N2WwWwWAQyWQSdrsdt2/fRiaTgc1mAwA8ePAAiUQChUIBt27dwvr6OqxWK3Q6HbxeL2ZnZ7G8vAyXywWv1wuTyYRsNovvv/8eTqcT6XQaHo8HoVAIDodD6fk/d+4cVlZWYDQa0d7ersS8zc1NhMNhzMzMQKVSPZdYXCgUsLy8jNnZWayvryMYDMJqtVYlJVS/euKmJEnwer3Y3t6Gx+OBz+dDPB6H0WhU/jaVkiqdToeNjQ3s7u4qf1OUz+Pj4qYgCNjY2IDBYEChUMDW1hY8Hg/C4TDUajV0Op3ymU6Km8ViEaurqxAEAdFoFBsbGwgEAmhqakIsFnumcXN9fR06nQ59fX1VbQ7nBxqNBpubm9BqtUoyfhq1cbgRNNZve4zKsNy1a9cQiUSgVqtRLBZx//59zM7OKkMXgiAgEAgglUpBo9FApVJhaWkJP/zwg3LRqRzru+++QywWg1qtRigUwjfffIOvv/4aGxsbEEURsixjdna26vgoDwF+8803iMfj0Gq1iMfj+Pbbb+H3+5U29GJlMhk4nU5Eo9Gq7Ts7u9jc3ESpdHAjtr+/j1QqBZVKBUEQsLW1BafTqZwrlURzZWUFXq8XpVJJCWahUAgLCwvw+/2QSzJKpRKSyWTVUFclWMuyDJVKhVA4hMXFxarPlU6nEYlEIAjCwbl4TJvt7W2srq5idXUVqfRB7wQABAIBqFQqNDf/mMgdDNNV35Bls1mIoqjUulXO55Nqc4vFIlQq1SMDriRJcDgc2N/fZ+/GMyaKIrRarXI+6fV6aDQaFItFzM7OYnt7W2m7vLyMO3fu4Pbt20ilUsp5EYlEcP36dUSjUeh0OqhUKsRisapzpFAoQKPRQK/XQ6vVKudToVBAd3c3BgcHcfv27SNDxIc961hcLBZx9+5d3Lt3D7IsQ61WY3t7G99//z17qx9TvXEzFAohm81CpVKhWCxifX29apg/EokocTMcDkMuv6/y3pPiZigUgsfjgSAIEEURXq8XS0tLVeVXJ8XNShnD6uoqNjY2kMvlgEPn5bOKm7Iso1gsnngzZjQa0dTUpFxX6GQPvwo1kEwmg0wmg5mzM7hy5Qree+89tLe34/79+1UneWdnJ9544w1cvXoVV69excjIKJaWlpThjcqxSqUSLl68iKtXr+LKlSvIpDNYWVnB6Ogo3n33Xbz33nvo7e3FvXv3kc1mgfKQxw8//AAAeOedd/Dee+/hrbfeQjwex/3791kf95JobW2FJEnY29tTtuXzeXi9HtjtdhiNBgiCgNbWVoyOjmJ8fBwTExPo6OjAzs5O1YW0UCggFothcHAQExMT6OvrQ6lUwvr6OuLx+MH7Jw7ePzIycmSIzG63K8Nto6OjiEQi8Hq9ShuTyYShoaGqNtFo9MjQdDQahclkwtjYGMbGxmA2m7G/vw+9Xl/VU1Irk8lgd3cXtmab0luSy+WUC0XlZnJ5efnIBTCbzSKRSGB2dhb379/H3Nwctre3j5zntmYbCoUCEolE1XZ6usxmMy5evAiz2Yy+vj5cvXoVY2Njtc0Ue3t7sFqteOedd3DlyhVYrVYEg0G43W6cP39eiZFvvvkmmpubYTabcf78eWi1WoyPj+Pq1auYmZmp6vFSq9V44403UCwWce/evYf2aj/rWBwKhXDr1i309vYqx5+ensbi4uKx9Zl0snripiiK6Oz4sYRgcmISFosFbre76lzIZDLI5XIYGRnB+MQ4Ojs7laT5pLiZyWTQ1dWl/IyBgQF4vV7s7+8rbeqNm+FwGK2trRgfH8eZM2eg0+qeadyslE8Eg0Elbs7Pz8Pj8VQlvJIkwWazIR6PI5/PK9vp4ZgIl0+cyclJ2FvsUKlUMBgM6O7uRjweVxJhlL/MVqtVuZPr7e1BLperCr6SJGFsbAx2+8Gx2tvbYW+xw2q1YnBwUOkN6e7uRiLx44kai8Wws7ODs2fPwm63QxAEtNhbMDg4CJfLVfU56MUxGAxoa2uD1+tV/naRSATxeBzdXd1KD2fl4i+KIlQqFVpaWlAsFqsSYVmW4XA40NHRAa1WC5VKhWw2C5/Ph46ODrS3t0Or1UKr1SrHqjAajejr64NGo4EoirDZ7FCr1VU9p3q9HjabDWq1GoIgwGazQaPRHOldVavVGBoagtlsVobtUqkUjEbjQ3tsi8UiNjY2kEgkMDQ8pPRk6PV6Zcay6tAw9vz8fFUvX0dHBzo7OyGKIkRRRCqVwsrKCtbW1qqCulZ30GtYSVLo5aDT6TAzM6OUCwiCAL1eD0mS4HQ64ff7IYoi7Hb7I5OCWg6HA+fPn8fCwkJVL3StZxmLt7e3USqVcPbsWeh0OkiSpJzThydBUf3qiZuCIMDeYofBcNCZoNUdDO1nMpkjCV1PTw9aWlqUcoN646bNZkNnZyfUarUSl1Gzykq9cdNgMGBgYEAphyuWis80bgqCgN7eXrS2tir/XtFoFEtLS0du0AwGA3K53ENvJqna8X+tBqNSqZR6ngpBEKqGVGRZht/vxw8//ICvvvoKn376KW7duoV8Pl91sqlUqqo6zUoipFarq74ctUMlkUgEyWQSS0tL+PTTTw9en30Kt9ut1HDSiyeKIjo7O5FKpZReBM+eB1qtFi2tB0FVlmWEw2GsrKxgbm4Os7Oz2NjYQKlUqjpXRFE8ct6l02nk83mlHvNhdNof640BQBCOnlOpVAobrg3Mz89jdnYWCwsLyGQyR4JjbQ9GpefhYUNwpVIJGxsb2NnZwdDQkDLBDeUEfXxsXOkJn5iYwPDwMEKhELa2tpR2fX19mJiYUNqNj4/DbDZjdXW1qvdXpVIpFwZ6eVitVhgMhqptra2tuHz5MgKBAK5fv44vv/wSLpfrSC//owiCgKmpKbS0tODmzZtIJpNVNe14DrHY6/Uik8ngu+++U2Lx119/jUQigVgsVtWW6lNP3CyWlxlbWlpS4ube3h5KpdKRHk+z2az8P04RNw2Gg57nitq/PU4RN00mE1SH6sqfddyUJEkZPay8xsfHIYoiVldXqzrLKjenh3MYejgmwnWq1O9GIpFja9yeBlEUodfrq179/f24evWqMgmEXjy73Q6NRgOPx4NcLgevzwuHw6Ekkz6fDwsLC4jFYsqF97jaL6Fcp3acEwPYCaddMpnEwsIC9jx7EAQBGo1G6eGoJRxTw/YwpfIkj42NDXR1dWFwcLDqYgAAOv1Bki6W6067urpgNBqreoRVKpVSR6pSqWA2m9HV1XWkVw/1/FvQc1fpkTpMq9Xi0qVLuHz5Mjo7OxGNRnH9+nWsrq5WtTuJ0WjE5cuXEQwGMT8/f6RH+XnEYrVaXRWHDQYDLl68iOnp6dqmVKeT4ubW1haWl5eRyWSUmFkbW/CEcfOkc+Q0cfNhn+E4TytuajQapRdcrVbDZrOhvb39yOg1nU79f8kGViwW8eDBA4TDYVy4cAFvv/32iTV0p1XpYRkeHlbq0g7X2TERfnnodDq0t7fD7/cjEAgodWeCIKBUKsHlciGRSGBkZESpM6v3oRB6vR5qtRrhcLh216lU1pvs6urCmTNnMD4+jqGhoSPB9zhiebWF2lEIWZaxu7uH1dVVdHZ2Ymho6KG9H4fJsgy5PAnrUWRZhiAIVe0KhQIKhQKEkzJ/eimoVCr09vbirbfewtWrVyGKIlZWVmqbnai3txeTk5O4d+9eVW3m84jFDocDGo1GqS0+/HqaP6fRPCpu5svLjpVKpYO4eeYgbh6edPYojR43pZqVHrLZLEfRToGJcB0EQUA6lVZ6sWRZRiAQwNLS0lM72So9Ynfu3MHOzg6ymSyymSz29/fhOWaReXpxBEFAV1cXstmssgTa4YCdy+UgiiI0Gg1kWcb+/n7dj/bUarVwOBzweDzweDzKeRAOh48MzT1KoVCALMvQarUQRRHpdBpbW1t19RpIkgS9Xo9UKlV1fu/t7cHpXIHNZkNvby8EQUAul6uqRQsEAsrQcqV31+VyIZvNoqOjAyj/+7jdbsRiMeX9leXmrFZr1VB4paZaq+ON4MsuHo8rvX0oJz7SoaWdpPLSUX6/X7nBeVgPnkqlwvnz56HRaLCwsKBsfx6xuK+vDwDwww8/IBqNIpvJIpPJwOPxIB6P1zanOj0qbpZKJeTzeeUcKckl+P3+uldMaoS4mUwmlfWBc7kcspksvF4vPB6PcvNWkUwmoSmvqEInYyJcB1EUMTE5AQD4/PPP8bvf/Q5zc3Noamo6Uif3uDQaDS5fvgytVosbN27gs999hs9+9xm+/fZbJsIvIavVCr1eD7/fj46ODiUIiaKI3t5eyLKs1LlVgv5x5RG1JEnCyMgILBYLVlZW8GDuAR7MHax3epqA3tbWBpvNBqfTidnZWSwtLSGfzx+ptzyOIAiw2+1IJpNKIlqZlR0Oh5FOp5U1ViuvyiSiRCKBtbU15Xefn5/H3t4eent70dXVBZQvent7e1hYWMDs7CwePHiA5eVlCIKA8fHxqqHw/f19SJKEpqYmZRu9nGKxGG7cuIHf/e53Sl2tKIqYmJgEysnK1NQUNjY28Nlnn+Hu3buPrB9utjbj0qVLVXW5zyMW2+12vPXWW/D7/fjmm2/w2e8+w+eff47bt28fmTBFp/OwuKlWq9Hf349EIoEHDx7gwYMHcLvdsFgskOpYC7wR4mahUMD29rZSu/xg7gFWV1dhNBqV9dgrP3N/fx9NTQeTn+lkDf9ADUEQYDAY0NPTU1V+IB56HrhKpVK+wCh/aVtbWzExMYGmpiZ0dnYqNWoPO5bD4UBra+tDjw8AFrMF9paDBbArPR4WiwVdXV1MBF4ylZ4Li8Vy5O9tNBqVHgVVeSJmb28v9Hq9UicnCAJ0Oh1aWlqOBCu9Xo+mpiZI5cXSNRoNzGazshi9KIpobm4+MtFOkiTY7XaYTCZotVplYkilp6K7uxsWiwUWi0UJ7A87FgBsbW0rq1/I8sG6nDabDfryGrOHXwaDARaLRamnk8o1bJWemt7eXuXfqPKZJEmCqlxDbTabD2ZEt7Qq9c/FYhFOpxPq8qoW4ilq8nDo57wIr9oDNVCOhSqVCp2dncqTqo7bdlw8q7TN5/PKeW8ymXDmzBkMDPRDKNd1Hp6Nb24yo7XtYFmt4+ImhIORMpPJhN7eXnR0dEAUxWcei0VRRFtbG4xGI+TyOsJ6vR4tLS3o7Ow88n2l+j0sbgqCAJPJBI36oEZWpVLBZrOhq6sLBr0BtvJDJgTh4KFBdrv9yHf7pLh5OD4eptFo0NLSAn251ryeuPmwY+EZxs3K7yWWV0rRaDRotjajr79P+W4CQCKRxOrqKnp6eo58R+tR+RmNRMjn86fLHF9i2UwWJfnpDI8RNbJcLoebN29CpVLhzTffPHLReR5CoRC+//57pU7vtCpJ9ovw13/zG5ybmcLw8EDtrufi8HJQRPR8vAxxc2lpCRsbG7hy5cqR1TXqodFoXsjnfpEaK+0norpoNBoMDQ0hEokgEAjU7n7mCoUC1tfXldp5IqKX3YuOm7FYDG63G319fRxFPgUmwkR0rLa2Npw5c+aF9ara7fYjNcNERC+zFxk3RVHEwMAABgYGIByz5Bsdj6URRPRaYmkEEdHpsDSCiIiIiKhBMBEmIiIioobERJiIiIiIGhITYSIiIiJqSEyEiYiIiKghMREmIiIioobERJiIiIiIGhITYSIiIiJqSEyEiYiIiKghMREmIiIioobERJiIiIiIGpKQz+fl2o2vqmw2C1l+bX4dInoCoihCo9HUbn4u/vpvfoNzM1MYHh6o3fVcZDKZ2k1ERCdSqVRQqVS1m19r7BEmIiIioob0evUIZ7IoyaXazUTUgFQqFdRqde3m5+JF9win0+naTUREJ9JoNJAkqXbza409wkRERETUkJgIExEREVFDYiJMRERERA2JiTARERERNSQmwkRERETUkJgIExEREVFDYiJMRERERA2JiTARERERNSQmwkT0zKRSKWxvbyOfz9fuopdMLBbDd999h1gsVruL6JVWLBaxuroKj8dTu4uIT5Z7mRWLRezu7mJnZweZTAYAoNVq4XA4MDAw0HBPf6FXz+7uLubn5/H222/DbDbX7n6m+GS509nZ2cFf/dVf4Ze//CW6u7trdz9VsVgM9+/fR3NzMyYnJyGK1X0yGxsbCIfDmJmZgUqlqtpHdFq5XA6ff/45HA4HLly4ULv7qSoUCtjc3ITFYkFrayuKxSICgQD29/dRKBQgiiJMJhM6OzuV+FQsFuFyuZTrfIVKpcLQ0BA0Gg0AwOPxIBgMVrUBgK6uLthsNsTjcezu7qKnpwdGo7G2WV34ZDl6aWQyGdy6dQvfffcd9vb2kMvlkMvl4PP5sL6+Dll+sfcvy8vL8Pv9tZuJqhiNRvT29p46IS2VStjY2EAikajdRa+QYrGI+fn5I73MsVgM165dw1dffQWv11u1DwA2Nzdx9+5dFIvF2l1ELzWfz4fV1VWUSgedcjs7O1hdXUUsFkM+n0cikYDT6cTGxobSplgsYm1tDcFgEPl8vuqFQ5d6j8eDjY2NI20O5wNutxsbGxsvPEd4lTARfgmVSiUsLi7i1q1baGtrwzvvvIMPP/gQH37wId59912MjIxAFF/cHVs+n8etW7cQCARqdxFVsVqtGB8fh16vr931SJlMBisrK0yEX3HpdBo3btw4kgijPLoliiJ++OGHIz1hRK+ifD6P9fV1NDc3o6WlBQAgiiIcDgfGx8cxNTWFyclJWCwWrK6uIpVKAeVEuFAooKurC1NTU8prfGwc6nJvMMo9201N5qo2U1NTaG5uBgA0NTWhu7sbbrcbyWRSeR89mvSrX/3qL2o3vqqKhSLkw7dPdYjFYpidnYXRaMTiwiKWV5axtbWFdDoNq9WqDBGUSiV4vV4sLi5idXUVGxsbCAaDMJvN0Gq1AABZluHz+TA7O4u1tTVsbW1hb28PbrcbkUgELS0tEEURhUIBTqcT8/PzyhCgxWJRhj/i8Tg+/fRTdHZ24sMPPkSzrRkqlQoqlQomkwnNzc0QBEH5mV6vFw8ePFB+ZjabhdVqVYYbY7EY7ty5A4vFonxWAPD7/ZidnUVbWxtUKlXVv8XKygqWlpawubmJRCIBq9UKlUqFaDSKH374AcvLy8jlcvD7/QiHw2hrazsyvEkUDoeVYUJJkhAOh7GzswOVSoXt7W14PB74/X5kMhmYTCaIoohgMIi1tTX4/X4Ui0VEIhHl+3gaoii+sCG+xSUn2tvbYLMdXKCet0KhULvpRLFYDPPz85iamoLZbK475vn9fszPz8PpdGJzcxN+vx9Go1GJFevr68jn89jb20MqlUJbWxtisRiWl5dx7tw5LC8vo6mpCQ6HQ4lrm5ubVaUR9XyWSvzS6/VYWFjA8vJBLC8UCmhqasLa2hrm5+fhcrkQDodhs9mqyi5Oisv0+Hw+H/b29mCxWKquE7FYDC6XCwaDAZIkwefzYWdnBz6fD36/H/F4HEajUfk7VeKHTqfD1tYWPB4PcrmcUnYVjUar4ko0GoXJZIIgCNjY2IDRYESpVILb7YbP58P+/j7UajV0Op3ymRKJBNxuNzweD3w+H0KhEGRZVkoNisUi1tfXIQgCYrEYtra2EAqF0NTUhFgsBqfTifHxcVgsFgCA2WyG3W6HTqeDJEnQaDQolUrY3t5GR0cHjEYjstksXC4Xent7YbPZIEmS8ip/JQAA6+vr0Ol06Ovrq2nzYyONRoONjQ3o9XrYbLYf31wnSZIa7lreWL/tMWKxGK5fv47vv/8egWAA+XwesVgM33//Pebm5pShC5QTx/39fZRKJRQKBczNzeH27dvKRScajeLbb79VSgYqvSEu14/DFMViEbOzs7hz5y7S6fTBl2ptHTdv3lR6RbxeLyL7EZw7dw46/Y9f0ONsbm7i+vXrCAQOPnsymcSdO3cxOzurDCvGHjIJJhAI4LvvvkM2m1XaXbt2Dd9++y0CgQAKhUL5eHcwPz9fNYzDyU9Uj/39feWmqfL/8/PzWFlZQTweR6FQQCKRwPLyMnZ3dwEAgiCgUChAlmUIOHQVoOeu3pgXCAQgyzIKhQKCwSAy6YNYVigUHlreUCwW0d3djf7+fty6dQvRaLS2SZWTPkslft24cQPBYBCFQgFejxdff/01vv32WyUhT6fTx8a0k+IyPb5kMomlpaUj16CdnR2sra2hVCpBlmUEAgGkUimUSiVkMhnlpqdy/azEE6fTCb8/gGw2i2Lx4G8YDoexuLgIj8eDbDaLbDaLaDRadQ0PhUPY3dlFPp9HoVDA7u4ulpeXq/7G6XQaoVBIKTnw+/1YXFxUPnuljGFtdQ2udReSiSRyuZzy+SVJqrppFwShKlEFgGw2C1EUlZKxUqkEQRAeWUImyzKKxeKJN2YmkwlNTU3wer1Vvzs9XMMnwgCQyWQRj8dx4cIFfPjhh3j//ffR2tpaNaQniiI62jtw+fJlfPDBB/jwww8xPDyC+fl5ZXhjc3MTu7u7eOvyW/jww4/w/vvvo729A3q9DhMTE0qP2I0bN9DV1YkPPvgAH3zwAaampzA3N4ednR0AQCgYgk6vU4ZWHiabzeKHH35AqVTCu+++i48+OviZnZ0duHHjBsLhcO1bTpTJZBGPxTEzM4MPP/wQH374Idra2nDnzh3kcjlYLBa88cYb0Ol0mJqawkcffYSLFy9yQgvVLZvNolQqYXR0VBkqVKlU2NjYQLFYhN1uR19fH1QqFfoH+jE9PY3+/v7aw9AzVk/MCwQC2NzcxPnzB7Hzgw8+wOXLl2FttqK9vf3gZl6nw6VLl/DRRx9hcnJSOb4sy9BoNHjzjTeRy+Vw//79h/Zk1/NZUI5fmUwGly5dwocffogrV68gkUhgfn4ew8PDeP/99/Hhhx+iu7sbd+7cUToB6onL9PhaW1shSRL29vaUbfl8Hh6PB3a7XekR7ujowNjYmDLkbzablV79imw2i1QqjZGRYUxNTaG7u0vppY1EIhgd+TGujIyMVI2CptNpdHR2YHJyUokre3t72N/fV9oYjUYMDQ1hcnISU1NTGB0ZRSQSOTJJLRgKwma3YWJyAuPj49Dp9Njfj8BgMFT1MNfKZrPY29uD1WqFyWQCyiUPxWIRW5tbmJubU0ZYDt84VMonQqEQ5ufnMTc3h6WlJfh8vqqEV5Ik2Gw2xMo1yXQyJsIARFHAxMQEWltboVarYbFYcOHCBSTiiaqTv83RhubmZkiSBLVajb6+voMehtTBDO39/f2D4Qi7DYIAGAwGOBxtiEQiyom6vb2NYrGIc+fOQa/XQ6VSYXBwEAaDAS6XCwCQyWag0+lOTC5jsRh2d3dx9uxZ5bObTCacO3cOxWIR29vbtW85kSSJmJqeQmtrK1QqlTLZKR6PK716RE9CkiQM9A+gqakJKpUKTU1NsFgsSKVSD+09pBfjpJhXGe7d2NhAKBSCJEloaWk5VU24o92B8+fPn5h0nvRZUI5fExMTaGlpgVqtRkdHB1paWmG1Niuz7w0GgxLTKolCPXGZHp/RaERrSys8Ho/ybx6NRhGPx9HV1a0M77e2tsJoNEIUReh0B51BmUymKqGTZRm9vb1oa2uDVquFJEnIZrPwer3o6OhAR2cHtFotdDrdkVKM5mYburq6oFaroVKp0NbWBpSXeawwGAyw2+1Qq9UQRRH2loP/rp2voNfrMTg4CJPJVC53KCKVSsJoNEJ6SElWsVjExsYG4vE4hoaGlR5gnU53MKlYo0apVEI2m8XOzg4WFhaUkRJBEJTVIQqFAvL5PILBEBYXF5XRtAqDwYBcLvfQG0uqxkS4vESJxVJdf9jU1ARREpUeg8qwx507d3Dt2nV88cUXuHfvLvK5PPKFgy+p2WxGKpVCZD8CWT74cvn9fqXmB+VZn7lcDrdu3cIXX3yBL774At9++y1SqZRywuu0OmQymRNP4sqwT23PsV6vh16vPzIMVY/j/i0EQeAMVHpqJEmCwWio2lY7dEgvXj0xr7W1FRcvXoLHs4fr16/jm2++webm5qluaERRxPT0NGw2G27evIlUKnVk6ad6PgvK8ctoPOhlQ/lcU6tV0GjUVclJ7flWT1ymxyeKIjq7ug6uj5EIAGBvbw8ajQZtba1AOUkMBAJYWVnBwsIC5ubmlOH92h5Pi6V6KcZ0Oo18Pg+bzV61vZbReNDzXFF7HqCcFG9ubmJpaQnz8/NYWlo6NqlsamqqKmWo9Ng+rHShVCpha2sLbrcbAwMD6OhoV/aZTCZMTEwoPeGTk5MYGhqC3+/H1tYWUP69R0ZGlJ7q6elpTEyMAwBWVlaqOqq0Wi2v26fARLgcZOWaWpraE2hnZ0epxZUPrVV8eHJeX18fWlpacO36NXz55Re4fv06RFHEuXPnlC+fLMtH7hYFQSif1BMAAJvdhnQ6/cwDcO0Xu+KY2ED01BxXM0cvn3pink6nw1tvXcabb76JlpYWBAIBXL9+/dS9qCaTCZcvX4bP58Pi4uKRHuV6PkvF45xa9cRlejItLXZoNBrlpsPn88HhcChlBG63G8vLy0d6XmsJgvDQyVwn/e1PijupVApLS0vY3d196PWx4mGf4TilkoydnR241l3o6OjA8PDwkRFfvV6vrOGr0+nQ3d0No9FYVbah0WiU0WK1Wg273Y729naO2D6h+v+Sr7FCoYBI9OAutSKRSECWZRgMBhSLJczOzsLn8+HixYu4cuUKPvroI0xPT1d9sSwWK4xGozKMo9frcfnyZfT19SltKl/8t956Gx999FHVq1I/19bWBqPRiPn5+Ud+GSsrQ9Su55tOp5FOp488wOBwbi/LB3VxRES16o15KPfC9vf348qVK3jvvfdQKpWwtLRU1aYe/f39mJiYwJ07dxAKhZTtp/ksj6ueuExPRqfTweFwwO/3IxgMIp1Oo6urC4IgIJ/PY21tDYVCAaOjo5iYmMD09DTs9kfPk6molLOEQ092TfP5fNja2kJHR4ey3Nno6OiRpPU4lVVqaq/Zsgx4PHtwOp1wtDswMjLy0F7jagIA4cgN2lEHNwaHE/PKPAyqDxPhcm/A0tISAoEAisUiYrEY7t69e2gtQBnJZBJarRYGw8GQbigUwsrKStXJlkgcPNXl3Llz+Oijj3D16lX09/dXnaC9vb0olUq4c+c2YrHYwezWTBY+n0+5EzabzZiZmYHT6cSNGzfg9XqRzRzMgg2Hw/D5fEq73t5ezM7OKp89mUxidnYWkiSht7cXKAcJSZLgdm8jl82hUChid/dgke/HIZWXgDmYmX0wHMQRGHqaKheeWCyGUqmEQqH+oXZ6GuqNeQn4fD7kcwc3/0ajsWpyUmXoOBQKoVg8WO3hYVQqFS5cuABJkrC4uHhoT32f5UnUE5fpyVRqXDOZDFwuV9XyXqVSCblcDmq1GlqtVimFCQTqe2hT5YmrHu/BkmeVVSMqT3OrV2WlCIPBAFEUkUln4Ha76+ptlSQJer1eWfWiwuv1YGVlBRaLBX19fRAEAbnyA7Iqny0YDMLv9yObySKXyyGdTmNzcwPZbAYdHR1Aubd6d3cXqVQKuVwO2ezB+en1etDW1laVXKdSKWg0mroSeOI6woiV185saWlBMBiE2+3G6uoqwuEw3nzzTXR1dUGSJJRKJezu7iIYDGJ3d1dZJiUcDmNiYgJmsxnZbBZOpxPJZBJerxebm5vY2tpCNBpFs/VgLeDK5JLNzU0EAgFsbW1ha2sLOzs7aGlpUdZSbW5uRrH82EWPx4O9vT1sbm5ic3MThfLC25IkoampSdm/u7sLl8uFQCCAc+fOYWBgAGJ5iZZ0Oo21tTWEw2G43dsIBAJQqVSIx+M4f/48tFqt8m9Rma1bEQgEsLa2hosXLyqL4CeTSWxtbSEcDiEWi6GtzXGqoSJqDPv7+/D5fMpEpdr/r/B4PEgmkxgcHIRUXscyGo0iHA4jmUwik8koi8bXq9JD8yK86usIW63WumJeMBDErVu3sLOzg+3tbWxsbCCdTuPs2bOw2+1Ke7fbjVAohEwmo6wjfFysqcTHBw8ewGg0YmZmBmr1wQSikz7Lw465sLAAAFU9u7UxrZ64TE9Oo9Fgd3cXoVAI/f39SpIniiJyuRwC5eXTQqEQwuEwNBoNkskkBgYGHhk/RFFU5sUEAgFEIhH4y2vct7S0QCivI2wymZSfifJqDS6XCw6HAzabDaIoYn9/H9Fo9OBYwYNlRHO5HIxGIzo6OpQJb7XHEgQBiUQCfr8fPT09UKvVKJaX5QsEAjAajYjFYvD7/cornU7DZrMpPdHh/TACgYDSa+5wODAwMACVSoVkMom1tTWEQiElcfb5fNBoNBgdHVXO0WKxBKdzBVqtFgMDA6ceNanE30bCRDgWw+LiIq5evQq1Wo1cLgedTofx8XGMjo4qF1Kr1QqdTod8Pg9BENDS0oLJyUkYjUZ0dnZCklRYXl5GOp2GRqMt92IVkEqlsLKyArVajfb2DkjSwVNmKiUUQnntQJvNhs7OTuXLrdVq0dnZqSwGXrmoNzU1obOzU1mnsLJYd2UopPKlGB8fV+4GpfJMblEUUSwWIUkSOjs7MTExAZPJhK6uLqWtVqtFT09PVa8Oyj09PT09UKlUEEURNpsNgiCgWCzCZDLB4eADNeh4er1eWT7puP+vMJlMsNvtEEWxPOnJqARxvV6vLFBfLybCp3f4+39SzNNqtZAhI51OKz1gOp0OY2NjGBwcVG7CbTYbSuUJTxaLRZnce1ysEQQBFosFer0e3d3d6OjogCiKdX2Whx0T5XKzygoBFbUxrZ64TE9GkiSoVCplNLPydxIEAU1NTcr3VRAE2Gw2dHd3Q6fTKTdVeET8MBgMaGpqAsrffVX5AVSVBFcQBNjtdqVNReX6qNfroT006oBD55PZbIbFYlHe+7BjAcDW1hZsNhvMZjNkWUY+n4fVaoW2vMLF4Zder1ceVlWZlySKIjQaDRwOB/r7+5Ua6srvIMuy8vuZzWYMDAxUdRIkkwePcO7u7j5yztdDasBEWMjn86fLHF9i2UwWpUMTKeqxs7ODv/qrv8Ivf/lLdHd31+6u2/7+Pv79v//3uHTpEsbGxpTEMpvN4je/+Q0kScIf//EfN9wJRvSiqMoTSl6Ev/6b3+DczBSGhwdqdz0X6fSPS4oR0fORy+Vw48YNaDQavPHGG0eS9edheXkZLpcL77777qk7D1DutX8Rn/tFYlb2lGQyGSSTSRgMBuh1B3eWKpUKqVQK+Xz+1MO6RERE9OrQaDQYGhrC/v7+kQdwPA/xeBxutxu9vb3H9lbT8ZgIPyVmsxlnzpzBwsICvvr6K3z55Vf4+uuvcefOHdhsNkxPT7M3mIiI6DXmcDgwPDz8wq73PT09yvwgqk/D/0uZzWa8/fbbR5YaOy2j0Yh33nlHWSqtVCoqdWdXr16tKqonIiKi149KpcLIyAhaWw8eFPI8NTU1YWxsDMaaB9LQozV8jTARvZ5YI0xEdDqsESYiIiIiahBMhImIiIioITERJiIiIqKGxESYiIiIiBoSE2EiIiIiakhMhImIiIioITERJiIiIqKGxESYiIiIiBoSE2EiIiIiakhMhImIiIioIb1ej1jOZiHLr82vQ0RPQBRFaDSa2s3PxYt+xHIul6vdRER0IkmSGu4Ry0yEiei11MiJcKlUqt1ERFQXUWysYoHXKxHOZFGSeQEgIkClUkGtVtdufi5edCJMRET1aay0n4iIiIiojIkwERERETUkJsJERERE1JCYCBMRERFRQ2IiTEREREQNiYkwERERETUkJsJERERE1JCYCBMRERFRQ2Ii/BzE43HcvHkT8Xi8dtcLs7W1hfv376NYLNbuopfc9vY2tre3azcTERHRKTERfg6i0SiuXbuGaDRau+upW15exvLycu3mI1wuF27duoVCoVC7i15yLpcLLperdvNTVygU4HK5EAqFgPJje/1+P5wrTiwuLmJ5eRlut7vqHCoWi3C5XFhcXKx6OZ1O5HI5pV1kP3KkzeLiInw+X9XPDgQCynuIiIieNibCT9nq6iqCwWDt5ufmwYMHePDgQe1molMLBAJYWVlREtjd3V04nU6EwiEkk0ns7+9jZWUFm5ubkOWDJ7UXi0WsrKzA4/EgmUwqr1QqpbQBgFA4hKWlJcTj8ap2h5PlYDCI5eVlZDIZZRsREdHTxET4KSoUCrh586bSq0X0qsrn81hfX4fVakVbWxtQ7hG22+2YGJ/AzMwMpqamYDKZ4HQ6kUqlgHIiXCwW0dPTg5mZGeU1MTEBjUajHD+bzUKv12NqaqqqXWdnJwBApVJhcHAQkUgEfr9fed9p5fL52k1EREQK6Ve/+tVf1G58VRULRcj4sdepHrIsw+/3Y3l5GS6XC1tbWwiHw2hqalIu3MViEXNzc8hlc7BYLcp7s9ks7t69C61Wi0KhgNu3b2NpaQnFYhGhUAiRSAStra1IJBKYn5/H8PAw3G431tbWsL29jUQiAYvFAkmSlGNmMhk4nU6srKxga2sLgUAABr0BOr1OaRMMBrG6ugqTyYTFxUWsrq6iWCyiubkZCwsLAIDJyUmlfSqVwvz8PNbW1rCzs4NCoYD9/X3s7+9jZmYGKpVKaUuP5vf74fF4YDabIYo/3kfG43FsbW5Bb9BDpVIhHA5jd3cXfr8fwWAQsVgMOp0OarUaAJBMJrG9vQ2dToe9vT14PB6kUilYLBYIgoBYLIadnR34fD7l/SaTCZIkYXNzE5ABg9GAnZ0d+P1+hMNhiKIIvV6vfKZkMom9vT14vV6lDQAYDAalzfb2NtLpNAr5Ara2txAMBqHVapFMJrGyvIKx8TFYrVYAgMViQUtLC3R6HSRJglarhSzL2N7eRkdHB4xGI7LZLNbX19Hb2wubzQZJkpSXIAjKz3W73cjlchgZGYFarVbaHP431Wq18Pv9iMfj6OrqqtpXj3Q6DfeOB6VSEWqNpup79qwtLjnR3t4Gm625dhcREb1ETndleQ3JsqwkCslkEvF4HPfu3cOdO3eU2sdCoYAffvgB6671qvdms1l888038Pl8KJVKSKfTyOVyyOVySKfTyGazVUPGc3Nz2NvbQzKZRDgcxg8//ICFhQWlTTabxa1btzA7O4toNIp4PI6NjQ1c//a6ksQAgM/nw7Vr13D79m1sbm4iGo0+dPg4nU7j+++/x/z8PGKxGOLxOJxOJ9xud21TqkMikcDCwsKRiY87OztYca4o50wwGEQ4HEYmk0EqlcLa2hpWV1eV/fF4HIsLi1hbW4Pb7UY8Hlf+hpH9CJaWluB2u5FIJBCPxxEOh6smNiaSCWxsbCCRSCCTyWBvbw+Li4tVnyuZTMLn8yGVSiGbzR7bxuVywel0YnVtFaHQQclDsVhEIBCAKIlobv4xkRMEoSqZBYBcLgdRFJWbqVKpBEEQlIT/YUqlElQq1SOTU0mS0NbWhnA4rPQ4n0apJCMYCGFhwYm5B0twbWwhmUyxl5iIiBQNnwiLogiHw4G33noLH3/8MX76059icHAQc3NzSKfTtc0fymq14q233oJOp8PMzAx+9rOf4c0331QShGKxiGQyiYsXL+Ljjz/GT37yE7S0tOD27dvIZrMAgB33Du7fv4+RkRF89NFH+Pjjj3H58mXs7u5idnYWpVJJ+XnRaBThcFg53ujoqLLvsM3NTczNzWFqagoff/wxPvroI/T19SkToOh0WltbIYkSPB6Psi2fz8Pj8cBms8FoNEIQBNjtdpw5cwYzMzM4e/Ys2trasL29XXXDUigWEAwG0d/fj7Nnz2JoaAiyLGNtfQ3hcBgjIyOYnp7G2bNnMTIyAq1Wq7w3k8nAYrEopQWjo6MIhULwer1KG6PRiMHBQUxPT2NmZgYjIyMIh8NHJqBFIhGo1WpMTExgenoaZrMZ+/v7MBgM0Ol+HImoVUmuLRYLmpqagHJiXCwW4Xa7sbS0hKWlJayvrx+5cchms0gmk0qblZUV7O3tHVnFxG63o1AoIJFIVG2vR1OTCYODfWhpsSGZTMLpdGFpaRUu1xb8/uAzTYjzuWd3bCIienoaPhEGgPb2dmUYV61WY2BgALlc7rF6oR5GFEXMzMygra0NkiTBaDSiv78fsVjsYIKQDDhXnTCZTDh79iz0ej00Gg16enowNjaG5eVlJWFGuSf77Nmz6OnpgU6nO768QQbW19dhsVgwOTkJrVYLjUaDkZERtLe317amOhiNRthbWrC3t4d8OZGq9N53dXUpPZwtLS2wWq0QRRFqtRoOhwOFQqEqES6VSnA42tHd3a38DbPZLLxeLzo6OtDV1QWdTgedTqcc6/DnGBwchFarhSRJaGlpgVqtrko4jUYjWltboVarIYqi8t/JZFJpg3LP6+joKKxWKzQaDWRZRjKZhNFofGiPbbFYxNbWFmKxGIaGhpQeYK1Wi+7ubgiCgHQ6jXg8js3NTSwuLiIWiynvb21tRWtrK1KpFFKpFILBIJaWlrC1tVU1qU6n00EQhIeOeJyks7Md09PjOH9+GoMDvdBqNQgEQlhYXMHc3BI2Nrafei9xMplCNpeHRvPoXnEiInrxGj4RlmUZoWAIs/dncePGDVy7dg1zc3PI5/NKovM0SJKk1FpWCIKgXPQLxQICgQBaW1urJhUJgoCWlhYkk8mqz6PVamG325X/P06hWEA4HD5yTJVKBZvNVtWW6iOKIrq7u5BMJhGJRAAAHo8HarVamVQG+aCX1eVyYWVlBUtLS9jZ2UGpVKpaakwURTQ3V58TqVQKuVzuxL+PTqc7cp7Uli2k02m43W44nU4sLS0pS5jVntd6vb6qtrhYLKJQKFQd/zBZluF2u7G1tYW+vj5lghsANDU1YXJyEmfPnlV6wwcHB+H1eqvWPh4YGFB6qmdmZjA5OQm9Xo+lpeWqRL1SPnF4NKReB6MwKSSTKYiiiK6uDgwO9qHd0Qq9Tge/L4C79+bw4MGi0ktcaf84r/1IFDs7HiwtrUKjVh/52xIR0cun4RPh3d1dXP/2Onb3dpFKpY7U9j5KqVSqqx0ekqjUkmX5xDYVgiA8tLfusIcd86QaTno4u90OtVoNj8eDXC4Hn8+HtrY2JZkMBANYWlpCIBBANptFNps9knyi/Dd82ASw4/5mh520P5VKYXl5Gdvb20pyncvljz1fRVE88XgVsixjd3cXa2trcDgcGB0dPTIaYTAYoClPTtPpdOjt7YXRaKwqx1Gr1dDrDyYWqlQqWK1W9PT0IJvNHOmxrvez1UokU3jwYPHIKxgMQ5ZlSJKEeDyBFec6FhZWcP/+/JG2p3nNzi5gYWEZgWAI09PjaGoy1X4kIiJ6yRx/FW4QpVIJs7Oz2Nvbw8WLF/HBBx/gZz/7Gc6dO3fsxbc2iYjH41Xrnj6JysQgn8935JiVes3ahOMkkiTBYrEgFApV9USWSiVEI8/+4R6vK71eD4fDgUAggFAohFQqpZQDlEolrK39WOM7NTWFc+fOobe399hzqlYlOTw8OfJx+P1+bGxsoL29XakjnpgYr+sGSBRFSJJ07MNWvF4vVlZW0NraitHR0Yf2Gh9WuQk86cbtuHaFQuHYm4h6iIIAtUb90FexWISm/O+hkiTodNojbU7zMpmM6Oxsx/jYCKanx2s/DhERvYQaOhGWZRnxeBx6vV6Z7BMOh7G6ulo1FCtJEkwmE3w+H+LxOEqlEuLxOObn56uSVqlcYxwKhZTh5XoJgoCRkZGD1QQWF5HL5lAoFLC3t4fl5eUjk6XqIQgC+vr6sL+/j42NDaXcY2trC17fj5Oq6HQEQUB3dzfS6TQ2Njag1+vR3PxjKUMmk4FarVaWKYtGo/B4PHUN72u1WrS1tcHj8cDv9yOXzSGXzSESiZzqfKrUkxuNJoiiiEwmg52dnSM3WceRJAl6vR6pVKrqM3u9XiwvL8NkMmFgYACiKCqrpFQ+WygUUnrCc7kcMpkMtra2kMlk4HA4gEOTC+PxhPL+cDiMnZ0dmM1mGI1G5WdWfo/TnvsoT5a7dHGm6jU01A+7rRk6rRY6vQ7dPZ04MzqEmZlJnD8/faT9aV/T0+Po7++p/ShERPSSauhEWJIknDlzBoVCAdeuXcP169cxNzenJAIVKpUKU1NTiMfjuHbtGq5du6Ysr2Yy/Tj8qdVqMTY2BpfLhWvXrmF+fv7ILPhH6enpxdmzZ7G0tITr317H9evXcfPmTTQ3N+P8+fMn9qgdZ3h4GIODg7h79y6uXbuG7777Di6XC62trbVN6RSs1mbodDp4PB60t7dDqz3oGT2oIe5GqVTC4uIilpaWsLGxodwknUSSJAwPD8NgMGJ5eRmLS4tYXFrE+vr6qRLh1tZWmM1mrK2tKvXBiUSiag3hhxEEAc3NzUgmk8oktWKxqDw1UZblI49RrtT/RqNRrK4e/MzK77+1tYXOzk709BwkiMViEdvb21he/rFN5Ql2Y2NjVd+9SCQCSZKUG9XH5fcHsbKyjtnZBWxsbCMc3keL3YbJiVFcuHgW/f09LGUgImpADf9ADZvNBrVajVQqhUKhAJvNhunpaWi1OmXWPsp1oRqNBplMFoVCAQaDAefOnYPZbEZnZydMpoOeN7vdjmKxiHQ6Db1ej/b2dmW4t6+vr2o5KlmWodVq0dfXV66VlNDZ2VmetZ9CsVhAc3MzLl26hJaWloe+77BisYiWlhal902r1aK9vV3pnQOA3t7ecrJleKwHFRCgUh08/MFkMh35u5pMTVCpJOTzeZRKJZhMJvT390Oj0cButysPopAkCa2trUd6Ow0GA5qamlAsFpUeWZPJBLvdDlEUUSwWYbFYjkyok2UZNpsNZrMZWq0Wer0exfKT3lQqFXp7e9HU1ASz2Qyz2QyUz5fjjgUAW1tbyvFkWUY2m4XZbD5yzgGARqNRVl4pFArKDaBULvkZGBhQ/o2E8iTRYrGolBsZDAYMDAzA4XAoJSSlUgkrKyvKzcFpz9NCoYjdXQ92dz3Y3HIjlU5Do1ajt7cLg4N96OnpgsGgh+oxbjCJiOj1IOTz+dNlji+xbCaLknzy8DMRPVo2m8ONG99Dp9Ph0qVLjzUa8aTC4TC+//57jI6OYmRkpHb3iWKxBBYWVqBSSWhutqKz0wFTkwnaOuqaiYioMZyui4WIGoJWq8Hg4CDC4fALefhKoVDAxsYGjEYjuru7a3fXRa1WYXCwF+fPT2N6ehx2u41JMBERVWEiTETH6ujowODgYO3m58ZoNB6pGT6NpiYT+vt7WftLREQPxdIIInotqVSquiYoEhFR42KPMBERERE1JCbCRERERNSQmAgTERERUUNiIkxEREREDYmJMBERERE1JCbCRERERNSQmAgTERERUUNiIkxEREREDYmJMBERERE1JCbCRERERNSQmAgTERERUUMS8vm8XLvxVZXL5SDLr82vQ0RPQJIkqFSq2s1ERESK1yoRLpVKtZuIqIGJIge9iIjo4V6rRJiIiIiIqF7sLiEiIiKihsREmIiIiIgaEhNhIiIiImpITISJiIiIqCExESYiIiKihsREmIiIiIgaEhNhIiIiImpITISJiIiIqCExESYiIiKihsREmIiIiIgaEhNhIiIiImpITISJiIiIqCExESYiIiKihsREmIiIiIgaEhNhIiIiImpITISJiIiIqCExESYiIiKihsREmIiIiIgaEhNhIiIiImpITISJiIiIqCExESYiIiKihsREmIiIiIgaEhNhIiIiImpITISJiIiIqCExESYiIiKihsREmIiIiIgaEhNhIiIiImpITISJiIiIqCExESYiIiKihsREmIiIiIgaEhNhIiIiImpITISJiIiIqCH9v/9wVkwc+hY1AAAAAElFTkSuQmCC;" vertex="1" parent="1">
          <mxGeometry x="740.9966259765625" y="-54.49662597656254" width="706" height="272" as="geometry" />
        </mxCell>
        <mxCell id="IqcgO0fhXSd2waFjPhRO-11" value="" style="html=1;whiteSpace=wrap;shape=isoCube2;backgroundOutline=1;isoAngle=15;" vertex="1" parent="1">
          <mxGeometry x="-591" y="309" width="215" height="211" as="geometry" />
        </mxCell>
        <mxCell id="IqcgO0fhXSd2waFjPhRO-12" value="Spring Data JPA" style="text;html=1;align=center;verticalAlign=middle;whiteSpace=wrap;rounded=0;" vertex="1" parent="1">
          <mxGeometry x="-525" y="346" width="60" height="30" as="geometry" />
        </mxCell>
        <mxCell id="IqcgO0fhXSd2waFjPhRO-13" value="" style="html=1;whiteSpace=wrap;shape=isoCube2;backgroundOutline=1;isoAngle=15;" vertex="1" parent="1">
          <mxGeometry x="-919" y="493" width="215" height="211" as="geometry" />
        </mxCell>
        <mxCell id="IqcgO0fhXSd2waFjPhRO-14" value="GraphiQL - Client&lt;div&gt;&lt;br&gt;&lt;/div&gt;" style="text;html=1;align=center;verticalAlign=middle;whiteSpace=wrap;rounded=0;" vertex="1" parent="1">
          <mxGeometry x="-853" y="530" width="60" height="30" as="geometry" />
        </mxCell>
      </root>
    </mxGraphModel>
  </diagram>
</mxfile>
